<?xml version="1.0" encoding="utf-8"?>
<!-- Generator: Adobe Illustrator 23.1.0, SVG Export Plug-In . SVG Version: 6.00 Build 0)  -->
<svg version="1.1" id="Layer_1" xmlns="http://www.w3.org/2000/svg" xmlns:xlink="http://www.w3.org/1999/xlink" x="0px" y="0px"
	 viewBox="0 0 60 57" style="enable-background:new 0 0 60 57;" xml:space="preserve">
<style type="text/css">
	.st0{display:none;}
	.st1{display:inline;}
	.st2{fill:#D90000;}
	.st3{stroke:#000000;stroke-width:0.75;stroke-miterlimit:10;}
	.st4{fill:#FF000F;}
	.st5{fill:#D90000;stroke:#D90000;stroke-width:0.25;stroke-miterlimit:10;}
	.st6{fill:#606060;}
</style>
<g class="st0">
	<g class="st1">
		<path d="M36.5,29.7c-0.1,2.4,1,3.9,2.8,4.8c2,1,4,0.6,5.7-0.7c1.5-1.2,2.2-2.9,1.7-4.9c-0.2-0.8-0.7-1.5-1.1-2.2
			c-0.2-0.4-0.3-0.6,0.2-0.7c2.1-0.5,4.3-1,6.4-1.6c0.5-0.1,0.6,0,0.7,0.5c0.4,1.7,0.9,3.3,1.2,5c0.4,2-0.8,3.1-2.8,2.4
			c-1.2-0.4-3.4,0.9-3.7,2.2c-0.4,1.5,0.2,3.2,1.4,4s2.5,0.7,3.9-0.4c1.7-1.3,3-0.8,3.5,1.3s0.9,4.1,1.5,6.2c0.2,0.7,0,0.9-0.7,1
			c-2.2,0.5-4.3,1-6.5,1.6c-1.9,0.5-2.3,1.9-1.2,3.4c0.5,0.6,0.9,1.2,0.9,2.1c0,1.8-1.1,3.1-3,3.2c-1.7,0.2-3.1-0.9-3.4-2.6
			c-0.1-0.5,0.1-0.9,0.2-1.3c0.3-2.1-0.8-3.1-2.9-2.6c-1.5,0.4-3,0.7-4.5,1.1c-0.7,0.2-0.9,0.1-1.1-0.7c-0.5-2.1-1-4.2-1.5-6.3
			s-1.9-2.6-3.6-1.3c-2.3,1.7-4.6,0.8-5.2-2c-0.4-2,1.3-3.8,3.3-3.5c0.2,0,0.4,0.1,0.6,0.1c2.1,0.3,3.1-0.8,2.6-2.8
			c-0.4-1.5-0.7-3.1-1.2-4.6c-0.2-0.8,0-1.1,0.8-1.2c0.9-0.1,1.9-0.3,2.8-0.7c0.3-0.1,0.6-0.2,0.9-0.2c0.6,0,1.3-0.1,1.1,0.9
			C36.4,29.6,36.5,29.8,36.5,29.7z"/>
		<path d="M30.1,36c-3-0.5-5.3,0.3-6.4,3.3c-0.7,2,0,4.5,1.7,5.8c2.3,1.7,4.6,1.3,6.8-0.5c0.6,2.4,1.2,4.7,1.7,6.9
			c0.1,0.5-0.1,0.7-0.5,0.8c-1.7,0.4-3.3,0.8-5,1.2c-1.8,0.4-2.7-0.6-2.4-2.5c0.3-1.8-0.3-3.1-1.6-3.8c-1.4-0.7-3.1-0.3-4.2,0.9
			c-0.9,1-1,2.6-0.2,3.8c0.2,0.3,0.5,0.6,0.7,0.9c0.7,1.2,0.2,2.4-1,2.8c-2.3,0.6-4.7,1.1-7,1.7c-0.7,0.2-0.7-0.2-0.8-0.7
			c-0.5-2.1-1-4.1-1.5-6.2c-0.6-2.3-1.9-2.8-3.8-1.3C5,50.4,3,50.2,2,48.7S1.4,45,2.9,44.1c0.6-0.4,1.3-0.6,2.1-0.4
			c0.4,0.1,0.9,0.1,1.3,0.1c1.2,0,2-0.8,1.8-2.1c-0.2-1.5-0.6-2.9-0.9-4.3c-0.5-1.9-0.5-1.9,1.5-2.4c1.6-0.4,3.3-0.8,4.9-1.1
			c2.8-0.6,2.7-2.5,1.4-4.2c-1-1.2-0.6-2.7,0-3.6c0.8-1.2,2.6-1.6,4-1c1.5,0.7,2,1.9,1.7,3.6c-0.4,2.4,0.8,3.4,3.1,2.7
			c1.5-0.5,3-0.8,4.5-1.1c0.3-0.1,0.6-0.1,0.7,0.3C29.3,32.3,29.7,34.1,30.1,36z"/>
		<path d="M17.6,22.9c-2.7,0-4.8,1.7-5.3,4.3c-0.3,1.5,0.4,2.7,1.2,3.8c0.4,0.6,0.3,0.8-0.3,0.9c-2.1,0.4-4.2,1-6.3,1.5
			c-0.4,0.1-0.6,0-0.7-0.4c-0.3-1.8-0.7-3.6-1.3-5.4c-0.4-1.2,0.6-2.2,1.9-2.2c0.4,0,0.7,0.1,1.1,0.1c1.5,0.2,2.9-0.5,3.5-1.8
			c0.7-1.4,0.2-3.1-1-4.2c-1.1-0.9-2.6-0.9-3.8,0C6.2,19.7,6,19.9,5.8,20c-1.5,1-2.7,0.5-3.1-1.1c-0.6-2.1-1-4.3-1.6-6.5
			c-0.2-0.7,0-1,0.7-1.1c2-0.4,4.1-0.9,6.1-1.5c2.4-0.6,2.8-1.9,1.4-3.8c-1-1.3-1-2.7-0.2-3.8s2.5-1.6,3.9-1.1
			c1.3,0.5,2.1,1.9,1.8,3.3c-0.1,0.5-0.2,1.1-0.1,1.6c0.1,1.2,1.2,1.8,2.7,1.5s3.1-0.7,4.6-1.1c0.8-0.3,1.2,0,1.3,0.8
			c0.4,1.8,0.8,3.6,1.3,5.4c0.1,0.5,0.2,0.9,0.4,1.4c0.5,1.3,1.7,1.7,2.9,1c0.4-0.2,0.7-0.5,1.1-0.8c1.1-0.7,2.4-0.6,3.4,0.1
			c1.1,0.8,1.5,2.3,1.2,3.6c-0.4,1.3-1.4,2.1-2.7,2.1c-0.5,0-0.9-0.1-1.4-0.2c-1.6-0.3-2.8,0.9-2.4,2.5c0.4,1.7,0.9,3.4,1.3,5.1
			c0.1,0.4,0.4,0.9-0.3,0.9c-1.6,0.1-3.1,0.9-4.7,1.1c-0.8,0.1-0.7-0.2-0.6-0.7C23.1,25.6,20.8,22.9,17.6,22.9z"/>
		<path class="st2" d="M28.9,22c3.8,0.1,5.6-0.8,6.4-3.3c0.7-2.1,0-4.6-1.8-6c-1.9-1.5-4.1-1.3-6.7,0.5c-0.5-1.9-0.9-3.7-1.3-5.5
			c-0.5-2-0.5-2,1.5-2.5c1.1-0.3,2.2-0.5,3.3-0.8c2.1-0.5,3,0.4,2.6,2.5c-0.3,1.5,0.1,2.6,1.3,3.5c1.3,0.9,3.2,0.7,4.3-0.5
			c1.2-1.2,1.3-2.8,0.3-4.2c-0.2-0.2-0.4-0.4-0.5-0.7c-0.8-1.2-0.4-2.5,1-2.9c2.3-0.6,4.7-1.2,7.1-1.7c0.5-0.1,0.7,0.1,0.8,0.5
			c0.5,2,1,4.1,1.5,6.1c0.6,2.5,1.9,3,4,1.5c1.2-0.9,2.8-0.9,3.8-0.1c1.1,0.9,1.5,2.8,0.9,4c-0.6,1.3-1.8,1.9-3.4,1.6
			c-2.3-0.4-3.4,0.7-2.8,3c0.4,1.5,0.7,3,1.1,4.5c0.1,0.5,0,0.8-0.6,0.9c-2.1,0.5-4.3,1-6.4,1.6c-2,0.5-2.6,1.7-1.4,3.4
			c0.8,1.2,0.6,2.4,0.7,3.6c0,0.9-1.9,2-3,1.9c-1.9-0.2-3.5-1.5-3-3.7c0.5-2.3-0.7-3.4-3-2.9c-1.4,0.4-2.8,0.7-4.3,1.1
			c-0.7,0.2-1.1,0.1-1.2-0.7c0-0.1-0.1-0.2-0.1-0.3C29.6,25,29.3,23.5,28.9,22z"/>
	</g>
</g>
<g class="st0">
	<g class="st1">
		<path d="M16.9,11c-0.4-1.9-0.7-3.5-1.1-5.1c-0.2-0.7,0-1.1,0.6-1.4c0.7-0.4,1.4-0.8,2.1-1.2C19,2.9,19.3,3,19.7,3.4
			c1.1,1.1,2.3,2,3.4,3.1C23.6,7,24,7.1,24.7,6.9c0.5-0.2,1-0.4,1.5-0.4c1.3,0,1.7-0.8,2-1.9c0.3-1.3,0.8-2.5,1.2-3.8
			c0.1-0.5,0.3-0.7,0.9-0.7c0.9,0,1.9,0,2.8,0c0.5,0,0.7,0.2,0.9,0.7c0.5,1.6,1,3.1,1.5,4.7c0.1,0.4,0.3,0.6,0.8,0.7
			c0.9,0.2,1.8,0.4,2.6,0.7C39.4,7.1,39.7,7,40,6.6c1.2-1.1,2.5-2.2,3.7-3.3c0.4-0.3,0.7-0.4,1.1-0.1c0.8,0.5,1.5,0.9,2.3,1.4
			c0.5,0.3,0.6,0.6,0.5,1.1c-0.4,1.6-0.7,3.1-1,4.7c-0.1,0.5-0.1,0.9,0.4,1.2c0.4,0.3,0.9,0.7,1.2,1.1c0.7,1.1,1.6,1.2,2.8,0.8
			s2.5-0.5,3.7-0.8c0.6-0.1,0.9,0,1.1,0.5c0.1,0.2,0.2,0.3,0.3,0.5c0.4,0.8,1.4,1.6,1.2,2.4c-0.1,0.8-1.1,1.4-1.7,2.1
			c-0.8,0.9-2,1.6-2.2,2.7c-0.2,1,0.5,2.2,0.8,3.3c0.1,0.5,0.4,0.5,0.7,0.7c1.5,0.5,3,1,4.5,1.4c0.6,0.2,0.9,0.5,0.8,1.2
			c-0.1,0.8,0,1.7,0,2.5c0,0.5-0.2,0.8-0.6,0.9c-1.6,0.5-3.1,1-4.7,1.5c-0.5,0.1-0.7,0.3-0.8,0.8s-0.1,1.1-0.4,1.6
			c-0.6,1.2-0.2,2.1,0.7,3s1.7,1.9,2.6,2.8c0.3,0.4,0.4,0.6,0.1,1.1c-0.5,0.8-0.9,1.5-1.3,2.3c-0.3,0.5-0.6,0.6-1.2,0.5
			c-1.5-0.3-2.9-0.6-4.4-1c-0.7-0.2-1.2,0-1.6,0.5c-0.3,0.4-0.7,0.9-1.1,1.2c-0.8,0.6-1,1.3-0.7,2.2c0.4,1.4,0.6,2.8,0.9,4.1
			c0.1,0.5,0,0.8-0.4,1s-0.7,0.4-1,0.6c-2,1.1-2,1.1-3.7-0.4c-0.1-0.1-0.2-0.2-0.3-0.2c-0.9-0.8-1.6-1.8-2.6-2.2s-2.1,0.6-3.3,0.7
			c-0.5,0.1-0.7,0.3-0.8,0.8c-0.5,1.6-1,3.1-1.5,4.7C33.7,56.8,33.5,57,33,57c-0.9,0-1.7,0-2.6,0c-0.6,0-0.9-0.2-1-0.7
			c-0.5-1.6-1-3.1-1.5-4.6c-0.1-0.5-0.3-0.7-0.8-0.8s-1-0.1-1.4-0.3c-1.3-0.7-2.3-0.3-3.3,0.8c-0.8,0.9-1.7,1.6-2.6,2.4
			c-0.5,0.5-0.8,0.5-1.3,0.1c-0.7-0.5-1.4-0.9-2.2-1.3c-0.5-0.3-0.6-0.6-0.5-1.2c0.4-1.5,0.7-3,1-4.6c0.1-0.6,0-1-0.4-1.3
			s-0.9-0.7-1.2-1.1c-0.7-1-1.5-1.1-2.6-0.8c-1.2,0.3-2.4,0.5-3.6,0.8c-0.7,0.2-1.1,0.1-1.4-0.6c-0.3-0.6-0.6-1.2-1-1.7
			c-0.6-0.8-0.4-1.3,0.2-2c1-1,1.9-2.1,2.9-3.2c0.4-0.4,0.4-0.8,0.3-1.3c-0.3-0.8-0.5-1.6-0.7-2.4c-0.1-0.5-0.3-0.7-0.8-0.8
			C7,32,5.5,31.4,4,31c-0.7-0.2-1-0.5-0.9-1.3c0.1-0.7,0.1-1.4,0-2.2C3,26.8,3.3,26.4,4,26.2c1.5-0.4,3-1,4.5-1.4
			C9,24.7,9.2,24.5,9.3,24c0.1-0.6,0.2-1.2,0.4-1.7c0.5-1,0.3-1.8-0.6-2.6c-1-0.9-1.9-2-2.8-3C6,16.2,6,16,6.3,15.6
			c0.5-0.8,0.9-1.5,1.4-2.3c0.3-0.5,0.6-0.6,1.1-0.5c1.5,0.4,3.1,0.7,4.6,1c0.5,0.1,0.9,0.1,1.3-0.4c0.6-0.7,1.2-1.2,1.8-1.9
			C16.7,11.3,16.9,11.1,16.9,11z M31.6,14.3c-7.9,0-14.3,6.3-14.3,14.3c0,7.9,6.3,14.3,14.2,14.3c8,0,14.3-6.3,14.4-14.3
			C45.9,20.6,39.5,14.3,31.6,14.3z"/>
		<path class="st2" d="M31.7,30.7c1.8,0,3.7,0,5.5,0c1.7,0,2.8,1.1,2.9,2.8c0,1-0.1,1.9,0,2.9c0.1,0.9-0.3,1.4-1,1.9
			c-4.5,3.4-10.9,3.3-15.2-0.3c-0.5-0.4-0.7-0.7-0.7-1.4c0.1-1,0-2.1,0-3.2c0-1.8,1.1-2.8,2.9-2.9C27.9,30.7,29.8,30.7,31.7,30.7z"
			/>
		<path class="st2" d="M31.6,29.8c-2.5,0-4.7-2.1-4.7-4.6c0-2.6,2-4.6,4.6-4.7c2.6,0,4.7,2,4.7,4.6C36.3,27.7,34.2,29.8,31.6,29.8z"
			/>
	</g>
</g>
<g id="Layer_3" class="st0">
	<g class="st1">
		<path d="M30,5.4c6.5,0,13,0,19.6,0c2.5,0,5.1,0,7.6,0c0.2,0,0.4,0,0.6,0C59.3,5.5,60,6.2,60,7.7c0,11.9,0,23.8,0,35.8
			c0,1-0.6,1.7-1.5,1.9c-0.4,0.1-0.7,0.1-1.1,0.1c-7,0-14.1,0-21.1,0c-0.6,0-0.6,0-0.5,0.6c0.1,1.2,0.2,2.5,0.2,3.7
			c0.1,0.9,0.3,1.7,0.9,2.4c0.1,0.2,0.3,0.3,0.5,0.3c1.5,0,2.9,0,4.4,0c0.3,0,0.4,0.1,0.4,0.4c0,0.9,0,1.8,0,2.7
			c0,0.3-0.1,0.4-0.3,0.4c-6,0-11.9,0-17.9,0c-2,0-3.9,0-5.9,0c-0.3,0-0.4-0.1-0.4-0.4c0-0.9,0-1.8,0-2.7c0-0.3,0.1-0.3,0.3-0.3
			c1.5,0,3.1,0,4.6,0c0.3,0,0.5-0.1,0.6-0.3c0.5-0.6,0.8-1.3,0.8-2.1c0.1-1.4,0.2-2.8,0.3-4.2c0-0.3-0.1-0.4-0.4-0.4
			c-7.1,0-14.2,0-21.3,0c-0.3,0-0.6,0-0.9,0c-1.1-0.1-1.6-0.7-1.7-1.8c0-0.2,0-0.4,0-0.7C0,31.4,0,19.7,0,8c0-0.1,0-0.2,0-0.3
			c0-1.4,0.7-2.1,2.1-2.1c1.8,0,3.5,0,5.3,0C14.9,5.4,22.5,5.4,30,5.4L30,5.4z M30,9.5L30,9.5c-8.8,0-17.6,0-26.4,0
			c-0.8,0-0.7-0.1-0.7,0.7c0,10.1,0,20.1,0,30.2c0,0.6,0,0.6,0.6,0.6c17.7,0,35.4,0,53.1,0c0.7,0,0.6,0.1,0.6-0.6
			c0-10.2,0-20.3,0-30.5c0-0.3-0.1-0.4-0.4-0.4C47.8,9.5,38.9,9.5,30,9.5z"/>
		<path d="M42.6,20.7c0,1.4,0,2.8,0,4.2c0,0.5,0.1,0.9,0.4,1.3c1.5,2.4,3,4.7,4.6,7.1c0.2,0.3,0.1,0.4-0.2,0.6
			c-3.1,1.7-7.3,1.3-10.2-1.1c-2.8-2.4-4-5.4-3.4-9.1c0.7-3.6,2.8-6,6.2-7.3c0.7-0.2,1.3-0.4,2-0.4c0.4,0,0.4,0.1,0.4,0.4
			C42.6,17.8,42.6,19.2,42.6,20.7L42.6,20.7z"/>
		<path d="M20,38c-3.4,0-6.7,0-10.1,0c-1,0-2,0-3,0c-0.3,0-0.4,0-0.4-0.3c0-1.1,0-2.1,0-3.2c0-0.3,0.1-0.3,0.4-0.3
			c4.3,0,8.6,0,12.9,0c4.4,0,8.8,0,13.2,0c0.4,0,0.5,0.1,0.5,0.5c0,1,0,1.9,0,2.9c0,0.4-0.1,0.5-0.5,0.5c-4,0-8,0-12.1,0
			C20.7,38,20.3,38,20,38L20,38z"/>
		<path d="M53.4,25.6c-0.1,2.8-1.2,5.5-3.7,7.6c-0.1,0.1-0.2,0.1-0.3,0.2c-0.2,0.2-0.3,0.1-0.4-0.1c-1.5-2.4-3.1-4.8-4.6-7.1
			c-0.1-0.2-0.1-0.3,0.1-0.4c2.4-1.8,4.8-3.6,7.2-5.4c0.2-0.2,0.3,0,0.4,0.1C53,22,53.4,23.6,53.4,25.6z"/>
		<path class="st2" d="M43.9,19.9c0-1.4,0-2.8,0-4.2c0-0.5,0-0.5,0.5-0.5c1.2,0.1,2.4,0.5,3.4,1.1c1.2,0.6,2.3,1.4,3.2,2.6
			c0.2,0.2,0.2,0.4-0.1,0.6c-2.2,1.7-4.5,3.4-6.7,5c-0.1,0.1-0.2,0.2-0.3,0.2c-0.1-0.1-0.1-0.2-0.1-0.4
			C43.9,22.8,43.9,21.3,43.9,19.9z"/>
		<path class="st2" d="M26.3,13.7c-0.4,0-0.9,0-1.3,0c-0.2,0-0.5,0-0.7,0c-0.3,0-0.5-0.2-0.5-0.6c0-0.3,0.2-0.5,0.5-0.6
			c0.1,0,0.1,0,0.2,0c1,0,2,0,3.1,0c0.5,0,0.7,0.2,0.7,0.7c0,1.1,0,2.2,0,3.3c0,0.4-0.2,0.6-0.6,0.6c-0.3,0-0.5-0.2-0.6-0.6
			c0-0.6,0-1.2,0-1.8c-0.2,0.1-0.3,0.2-0.4,0.3c-1.4,1.6-2.8,3.3-4.2,4.9c-0.1,0.1-0.2,0.2-0.3,0.3c-0.4,0.4-0.6,0.5-1.1,0.1
			c-1.4-1.1-2.7-2.2-4.1-3.3c-0.3-0.2-0.4-0.2-0.6,0c-1.7,1.6-3.4,3.2-5.1,4.9c-0.1,0.1-0.1,0.1-0.2,0.2c-0.4,0.3-0.6,0.4-0.9,0.1
			c-0.2-0.2-0.2-0.8,0.1-1c1.9-1.8,3.7-3.6,5.6-5.4c0.5-0.5,0.7-0.5,1.3,0c1.3,1.1,2.7,2.2,4,3.2c0.2,0.1,0.3,0.2,0.5,0
			c1.4-1.7,2.9-3.4,4.3-5.1C26.2,13.9,26.3,13.8,26.3,13.7z"/>
		<path d="M28.2,24.6c0,1.5,0,2.9,0,4.4c0,0.6-0.2,0.8-0.8,0.8c-0.6,0-1.2,0-1.9,0c-0.5,0-0.7-0.2-0.7-0.7c0-3,0-5.9,0-8.9
			c0-0.6,0.2-0.7,0.7-0.8c0.6,0,1.2,0,1.9,0c0.6,0,0.7,0.2,0.7,0.7C28.2,21.7,28.2,23.2,28.2,24.6L28.2,24.6z"/>
		<path d="M15.1,25.5c0-1.2,0-2.3,0-3.5c0-0.6,0.2-0.8,0.8-0.8c0.6,0,1.2,0,1.8,0s0.7,0.2,0.7,0.7c0,2.4,0,4.8,0,7.2
			c0,0.5-0.2,0.7-0.7,0.7c-0.7,0-1.3,0-2,0c-0.5,0-0.7-0.2-0.7-0.7C15.1,27.9,15.1,26.7,15.1,25.5L15.1,25.5z"/>
		<path d="M23.3,26.4c0,0.9,0,1.8,0,2.7c0,0.6-0.2,0.8-0.8,0.8c-0.6,0-1.2,0-1.9,0c-0.6,0-0.8-0.2-0.8-0.7c0-1.8,0-3.6,0-5.5
			c0-0.5,0.2-0.7,0.6-0.7c0.7,0,1.4,0,2.1,0c0.5,0,0.7,0.2,0.7,0.7C23.3,24.6,23.3,25.5,23.3,26.4L23.3,26.4z"/>
		<path d="M10.1,27.2c0-0.6,0-1.2,0-1.8c0-0.6,0.2-0.7,0.7-0.8c0.6,0,1.3,0,1.9,0c0.5,0,0.7,0.2,0.7,0.7c0,1.3,0,2.5,0,3.8
			c0,0.5-0.2,0.7-0.7,0.7c-0.7,0-1.3,0-2,0c-0.5,0-0.7-0.2-0.7-0.7C10.1,28.5,10.2,27.9,10.1,27.2C10.2,27.2,10.1,27.2,10.1,27.2z"
			/>
		<path class="st2" d="M26,38c-1.9,0-3.8,0-5.7,0c-0.6,0-1.1,0-1.7,0c-0.1,0-0.2,0-0.2-0.3c0-1.1,0-2.1,0-3.2c0-0.3,0-0.3,0.2-0.3
			c2.4,0,4.9,0,7.3,0c2.5,0,5,0,7.4,0c0.2,0,0.3,0.1,0.3,0.5c0,1,0,1.9,0,2.9c0,0.4,0,0.5-0.3,0.5c-2.3,0-4.6,0-6.8,0
			C26.4,38,26.2,38,26,38L26,38z"/>
	</g>
</g>
<g id="Layer_4" class="st0">
	<g class="st1">
		<path d="M36.6,30.5c-0.2,0-0.4,0-0.5,0c-8.7,0-17.5,0-26.2,0c-0.3,0-0.5,0-0.6,0.5c-0.4,1.8-1.7,3.1-3.6,3.5c-2.1,0.4-4-0.5-5-2.2
			c-1.1-1.9-0.7-4.5,1.2-5.9c1.5-1.2,3.2-1.3,4.9-0.5c1,0.4,1.7,1.1,2.1,2.1c0.2,0.4,0.4,0.5,0.7,0.5c4.4,0,8.8,0.1,13.2,0
			c4.5-0.1,8.9,0,13.4-0.1c0.4,0,0.5-0.1,0.3-0.5c-0.7-1.9-2.1-2.9-4.1-3.3c-0.2,0-0.4,0-0.6,0c-3.9,0-7.7,0-11.6,0
			c-0.4,0-0.7-0.1-0.9-0.5c-1.4-1.9-2.8-3.7-4.1-5.5c-0.1-0.1-0.2-0.2-0.4-0.2c-0.8,0-1.6,0-2.4,0c-0.3,0-0.4,0.2-0.5,0.4
			c-0.6,1.2-1.5,2-2.9,2.4C6.5,22,3.8,20.5,3.2,18c-0.6-2.7,0.9-5.1,3.6-5.7c2.5-0.5,5,1.1,5.4,3.6c0,0.3,0.2,0.4,0.5,0.4
			c1,0,2,0,3,0c0.3,0,0.5,0.1,0.7,0.4c1.4,1.9,2.8,3.7,4.2,5.5c0.1,0.2,0.3,0.2,0.6,0.2c3.6,0,7.3,0,10.9,0c1.4,0,2.7,0.5,3.9,1.3
			c1.2,0.9,2,2,2.6,3.4c0.6,1.7,0.6,3.5-0.2,5.2c-0.9,2-2.4,3.3-4.5,4c-0.6,0.2-1.3,0.3-1.9,0.3c-3.5,0-7,0-10.4,0
			c-0.4,0-0.6,0.1-0.8,0.4c-1.4,2.1-2.8,4.2-4.2,6.2c-0.2,0.3-0.4,0.4-0.8,0.4c-1.1,0-2.1,0-3.2,0c-0.2,0-0.4,0.1-0.5,0.3
			c-0.6,1.5-2.3,2.7-4.1,2.7c-2.1,0-4-1.5-4.5-3.4c-0.8-2.7,1.3-5.5,3.9-5.8c1.5-0.2,2.7,0.3,3.8,1.2c0.7,0.6,1.2,1.4,1.3,2.3
			c0.1,0.3,0.2,0.5,0.5,0.5c0.6,0,1.2,0,1.8,0c0.3,0,0.4-0.1,0.6-0.3c1.4-2.1,2.9-4.3,4.3-6.4c0.2-0.3,0.4-0.3,0.7-0.3
			c3.9,0,7.7,0,11.6,0c1.8,0,3.2-0.9,4.2-2.4C36.3,31.6,36.6,31.1,36.6,30.5z M4.8,32.4c1.2,0.1,2.5-1,2.5-2.4s-1.1-2.5-2.5-2.5
			S2.3,28.6,2.3,30C2.3,31.3,3.4,32.4,4.8,32.4z M10.3,42.1c0.1-1.2-1-2.5-2.5-2.5c-1.3,0-2.5,1.1-2.5,2.5s1.1,2.5,2.5,2.5
			S10.3,43.5,10.3,42.1z M10.3,16.8c0.1-1.3-1-2.5-2.5-2.5c-1.6,0-2.4,1.4-2.5,2.4c-0.1,1.5,1.3,2.6,2.5,2.6
			C9.2,19.2,10.3,18.2,10.3,16.8z"/>
		<path d="M28.2,44.6c-1.5,0-3,0-4.6,0c-0.4,0-0.6,0.1-0.8,0.4c-0.7,0.8-1.4,1.6-2.1,2.4c-0.8,0.9-1.5,1.7-2.3,2.6
			c-0.2,0.2-0.3,0.4-0.2,0.7c1,2.8-1,5.7-3.7,6c-1.6,0.2-2.9-0.3-4-1.4c-1.7-1.7-1.6-4.8,0-6.4c1.5-1.6,4.4-1.9,6.1-0.5
			c0.1,0.1,0.2,0.1,0.3,0c1.1-1.3,2.3-2.7,3.4-4c0.5-0.6,1-1.1,1.5-1.7c0.1-0.1,0.2-0.2,0.4-0.2c0.9,0,1.8-0.1,2.7-0.1
			c2.3,0,4.6,0,6.8,0c1.6,0,3.1-0.3,4.6-0.9c1.7-0.7,3.2-1.7,4.5-3c1.9-2,3.2-4.3,3.7-7c0.6-3.4-0.2-6.3-2.2-9.1
			c-1.2-1.6-2.7-2.8-4.5-3.7c-1.4-0.7-2.8-1.2-4.3-1.3c-2.7-0.3-5.4-0.1-8.1-0.1c-1.5,0-1.5,0-2.3-1.2c-1.6-2.4-3.3-4.7-4.9-7.1
			c-0.1-0.2-0.2-0.3-0.5-0.2c-2.3,0.9-4.9,0-5.9-2.1C10.4,3.9,12,0.6,15.1,0c2.4-0.5,4.9,1.2,5.4,3.6c0.2,1.2,0,2.3-0.6,3.3
			c-0.2,0.3-0.1,0.5,0,0.7c1.5,2.1,3,4.2,4.4,6.4c0.5,0.8,1.1,1.2,2.2,1.1c2-0.1,3.9-0.1,5.9,0c3.3,0.1,6.2,1.2,8.8,3.1
			c1.8,1.3,3.2,3,4.2,4.9c0.7,1.5,1.2,3,1.4,4.6c0.1,0.6,0.1,1.3,0.1,1.9c0,1.8-0.4,3.6-1.2,5.3c-0.9,2-2.1,3.8-3.8,5.3
			c-2.1,1.9-4.5,3.3-7.3,3.9c-1.7,0.4-3.4,0.2-5.1,0.3C29.1,44.7,28.6,44.6,28.2,44.6z M13.9,54.7c1.4,0,2.5-1.1,2.5-2.5
			c0-1.3-1.2-2.5-2.5-2.5c-1.4,0-2.5,1.2-2.5,2.5C11.4,53.6,12.5,54.7,13.9,54.7z M15.9,7.1c1.4,0.1,2.5-1,2.5-2.5
			c0-1.3-1.1-2.4-2.5-2.5c-1.1,0-2.5,0.8-2.6,2.5C13.4,6.2,14.7,7.1,15.9,7.1z"/>
		<path class="st2" d="M46.5,7.1c2,2.1,4,4.1,6,6.2c0.3,0.3,0.6,0.7,1,1.1c0.2,0.2,0.2,0.3,0,0.5c-0.9,1.2-1.8,2.3-2.7,3.5
			c-0.2,0.2-0.2,0.3-0.1,0.5c0.9,1.7,1.5,3.5,2,5.3c0.1,0.3,0.3,0.2,0.4,0.2c1.5,0,3,0,4.5,0c0.4,0,0.5,0.1,0.5,0.5
			c0,3.4,0,6.9,0,10.3c0,0.3-0.1,0.4-0.4,0.4c-1.5,0-3,0-4.6,0c-0.3,0-0.4,0.1-0.6,0.4c-0.4,1.3-0.9,2.6-1.7,3.8
			c-0.2,0.4-0.2,0.6,0.1,0.9c0.9,1,1.7,1.9,2.6,2.9c0.2,0.2,0.2,0.3,0,0.5c0,0,0,0-0.1,0.1c-2.2,2.2-4.4,4.5-6.6,6.7
			c-0.2,0.3-0.4,0.4-0.7,0.1c-1-0.8-2-1.6-2.9-2.4c-0.3-0.3-0.6-0.3-0.9-0.1c-1,0.6-2.2,1-3.3,1.4c-0.4,0.1-0.9,0.1-1.1,0.4
			c-0.2,0.3-0.1,0.8-0.1,1.3c0,1,0,2,0,3c0,0.3-0.1,0.4-0.4,0.4c-3.1,0-6.3,0-9.4,0c-0.3,0-0.4-0.1-0.4-0.4c0-1.4,0-2.9,0-4.3
			c0-0.3,0.1-0.4,0.4-0.4c0.5,0,0.9,0,1.4,0c0.3,0,0.4,0.1,0.4,0.4c0,0.7,0,1.5,0,2.2c0,0.3,0.1,0.4,0.4,0.4c1.7,0,3.4,0,5.1,0
			c0.3,0,0.4-0.1,0.4-0.4c0-1.1,0-2.3,0-3.4c0-0.3,0-0.4,0.3-0.4c1.8-0.4,3.6-0.9,5.2-1.8c0.5-0.3,1-0.6,1.5-0.9
			c0.2-0.1,0.3-0.1,0.5,0c0.9,0.7,1.8,1.5,2.7,2.2c0.5,0.4,0.5,0.4,1-0.1c1.1-1.1,2.2-2.2,3.3-3.3c0.7-0.7,0.7-0.7,0-1.5
			c-0.7-0.7-1.3-1.4-1.9-2.1c-0.2-0.2-0.2-0.4-0.1-0.7c1.2-2,2.2-4,2.8-6.3c0.1-0.3,0.2-0.4,0.5-0.4c1.4,0,2.8,0,4.1,0
			c0.4,0,0.5-0.1,0.5-0.5c0-2,0-4,0-6.1c0-0.4-0.1-0.5-0.5-0.5c-1.3,0-2.7,0-4,0c-0.3,0-0.5-0.1-0.5-0.4c-0.4-2.1-1.1-4.2-2.1-6.2
			c-0.2-0.4-0.4-0.8-0.7-1.2c-0.2-0.3-0.1-0.4,0-0.6c0.8-1,1.7-2.1,2.5-3.2c0.2-0.2,0.1-0.3,0-0.5c-1.4-1.4-2.7-2.8-4.1-4.2
			c-0.1-0.1-0.2-0.2-0.4,0c-0.9,0.9-1.9,1.7-2.8,2.6c-0.3,0.3-0.6,0.3-0.9,0.1c-0.7-0.5-1.5-0.9-2.2-1.3c-1.3-0.6-2.7-1.1-4.1-1.4
			c-0.4-0.1-0.5-0.2-0.5-0.6c0-1.4,0-2.7,0-4.1c0-0.3,0-0.5-0.4-0.5c-1.7,0-3.4,0-5.1,0c-0.3,0-0.4,0.1-0.4,0.4c0,1.4,0,2.8,0,4.2
			c0,0.3-0.1,0.4-0.4,0.4c-0.5,0-0.9,0-1.4,0c-0.2,0-0.3-0.1-0.3-0.3c0-2.2,0-4.3,0-6.5c0-0.3,0.1-0.3,0.4-0.3c3.2,0,6.3,0,9.5,0
			c0.3,0,0.4,0.1,0.4,0.4c0,1.5,0,3.1,0,4.6c0,0.4,0.1,0.5,0.5,0.6c1.5,0.4,2.9,1.1,4.3,1.8c0.1,0.1,0.2,0.1,0.3,0
			c0.7-0.7,1.4-1.3,2.1-1.9C45.5,8,45.9,7.6,46.5,7.1z"/>
	</g>
</g>
<g id="Layer_5">
	<g>
		<path class="st3" d="M43.9,23.8c-0.3,1.3-0.9,2.6-1.7,3.7c-1.8,2.4-3.2,4.9-4.1,7.7c-0.3,1.1-0.6,2.3-0.7,3.4
			c0,0.4,0.2,0.7,0.6,0.8c0.4,0,0.6-0.2,0.7-0.6c0-0.1,0-0.3,0.1-0.4c0.4-3,1.5-5.7,3.2-8.2c1.4-2,2.7-4.1,3.3-6.4
			C44.8,23.8,44.3,23.8,43.9,23.8z"/>
		<path class="st3" d="M37.4,48c-3.9,0-7.7,0-11.6,0c-0.6,0-0.8-0.1-0.8-0.7c0-0.7,0.3-0.7,0.8-0.7c3.9,0,7.8,0,11.7,0
			c1.1,0,1.2-0.1,1.2-1.2c0-0.6,0-1.2,0-1.8c0-1.1-0.1-1.2-1.2-1.2c-3.8,0-7.6,0-11.4,0c-0.6,0-0.8-0.1-0.8-0.8
			c0.1-3.4-0.6-6.6-2.1-9.6c-0.7-1.4-1.5-2.7-2.5-4s-1.6-2.7-2-4.3h-1.4c0.5,1.9,1.3,3.7,2.5,5.3c1,1.3,1.8,2.7,2.5,4.2
			c1.3,2.9,1.9,6,1.6,9.1c-0.1,1.2,0,1.3,1.2,1.3c3.8,0,7.6,0,11.5,0c0.6,0,0.8,0.1,0.8,0.7c0,0.7-0.2,0.8-0.8,0.8
			c-3.9,0-7.8,0-11.7,0c-1.1,0-1.2,0.1-1.2,1.2c0,0.6,0,1.1,0,1.7c0,1.2,0.1,1.3,1.3,1.3c3.9,0,7.8,0,11.7,0c0.7,0,0.7,0.3,0.7,0.9
			c0,0.6,0,0.9-0.7,0.9c-1.7-0.1-3.3,0-5,0c-0.6,0-1,0.2-1,0.9c0,1.2,0,2.3,0,3.5c0,0.5,0.2,0.8,0.6,0.8c0.5,0,0.7-0.4,0.7-0.9
			c0-0.8,0-1.6,0-2.4c0-0.5,0.2-0.7,0.7-0.7c1.6,0,3.1,0,4.7,0c1.3,0,1.4-0.1,1.4-1.4c0-0.6,0-1.1,0-1.7C38.7,48.2,38.6,48,37.4,48z
			"/>
		<path class="st4" d="M13.6,21.4c0.2,0.1,0.5,0.1,0.7,0.2h7.6c-0.3-0.9-0.5-1.9-0.5-2.9C21.3,13.4,25.6,9,30.8,9
			c5.3-0.1,9.7,4.1,9.7,9.4c0,1.1-0.2,2.2-0.6,3.3H47c0.4-0.1,0.8-0.2,1.1-0.3c0.4-0.1,0.6-0.2,0.6-0.7c0-1.5,0-2.9,0-4.4
			c0-0.4-0.1-0.6-0.5-0.7c-1.3-0.3-2.6-0.6-3.9-1c-0.4-0.1-1.5-2.1-1.4-2.5c0-0.1,0.1-0.2,0.2-0.4c0.6-1.1,1.3-2.3,2-3.4
			C45.3,8,45.3,7.8,45,7.5c-1.1-1-2.1-2.1-3.1-3.2C41.6,4,41.4,4,41,4.2c-0.9,0.5-1.8,1-2.6,1.6S36.8,6.6,35.9,6
			c-0.2-0.1-0.4-0.2-0.6-0.3c-0.4-0.1-0.5-0.3-0.6-0.7c-0.3-1.3-0.7-2.6-1-3.9c-0.1-0.4-0.3-0.5-0.7-0.5c-1.5,0-2.9,0-4.4,0
			c-0.5,0-0.6,0.2-0.7,0.6c-0.2,1-0.5,2-0.7,2.9c-0.2,1-0.6,1.7-1.7,1.9c-0.2,0-0.4,0.1-0.6,0.3c-0.3,0.2-0.6,0.2-0.9,0
			c-1.2-0.7-2.4-1.3-3.5-2c-0.3-0.2-0.5-0.2-0.8,0.1c-1,1.1-2.1,2.1-3.1,3.1c-0.3,0.3-0.3,0.5-0.1,0.8c0.4,0.7,0.8,1.4,1.2,2.1
			c0.9,1.2,1.1,2.3,0.3,3.6c-0.2,0.3-0.4,0.6-0.8,0.7c-1.3,0.3-2.6,0.7-3.9,1c-0.4,0.1-0.5,0.3-0.5,0.7c0,1.5,0,3,0,4.5
			C13.1,21.1,13.2,21.3,13.6,21.4z"/>
		<path d="M36.8,21.4c0.4-0.9,0.6-1.8,0.6-2.8c0-3.6-2.9-6.5-6.5-6.5s-6.5,2.9-6.5,6.5c0,1,0.2,2,0.6,2.8H36.8z"/>
	</g>
</g>
<g id="Layer_6" class="st0">
	<g class="st1">
		<g>
			<g>
				<path d="M29.6,6C38,6,46.4,6,54.8,6c2.7,0,4.4,1.7,4.4,4.4c0,13.2,0,26.5,0,39.7c0,2.6-1.7,4.3-4.4,4.3c-16.9,0-33.8,0-50.7,0
					c-2.6,0-4.3-1.8-4.3-4.3c0-13.2,0-26.4,0-39.6C-0.1,7.7,1.6,6,4.4,6C12.8,6,21.2,6,29.6,6L29.6,6z M29.6,50.3
					c8.1,0,16.3,0,24.4,0c1,0,1.1-0.1,1.1-1c0-10.8,0-21.7,0-32.5c0-0.9-0.2-1.1-1.1-1.1c-16.2,0-32.4,0-48.6,0
					c-1.3,0-1.4,0.1-1.4,1.4c0,10.7,0,21.4,0,32c0,1.1,0.1,1.2,1.2,1.2C13.4,50.3,21.5,50.3,29.6,50.3z M35.8,10.9
					c0-1.1-0.9-2.1-2-2.1s-2.1,1-2.1,2.1s1,2.1,2.1,2.1C34.9,12.9,35.8,12,35.8,10.9z M40,10.9c0,1.1,0.9,2.1,2.1,2
					c1.1,0,2.1-0.9,2.1-2.1s-1-2.1-2.1-2.1C40.9,8.8,40,9.7,40,10.9z M50.3,8.8c-1.1,0-2.1,1-2.1,2.1s1,2.1,2.1,2.1
					c1.2,0,2.1-1,2.1-2.1C52.4,9.7,51.4,8.7,50.3,8.8z"/>
			</g>
		</g>
		<path class="st5" d="M25.3,19.7c7.9,0,15.8,0,23.7,0c0.9,0,1.1,0.2,1.1,1.1c0,5.7,0,11.4,0,17.1c-5.4,0-10.9,0.1-16.3,0.1
			c-0.9,0-1.2-0.3-1.1-1.2c0-1.7-0.1-3.5,0-5.2c0.1-1.4-0.2-2.1-1.8-1.9c-1.3,0.1-2.6-0.1-3.9,0.1c-1.3,0.1-1.8-0.3-1.8-1.7
			C25.3,25.3,25.3,22.5,25.3,19.7z"/>
		<path d="M14.2,45.3c0-3.9,0.1-7.9,0.1-11.8c0-1.5,0.5-1.9,1.9-1.8c4.3,0.1,8.6,0.1,12.9,0c1.3,0,1.7,0.3,1.7,1.7c0,4,0.1,8,0.1,12
			C25.3,45.3,19.7,45.3,14.2,45.3z"/>
		<path class="st6" d="M10.8,23.8c3.9,0,7.8,0,11.6,0c1,0,1.4,0.3,1.4,1.4C23.9,29,24,29,20.1,29c-3.1,0-6.2,0-9.2,0
			C10.8,27.2,10.8,25.5,10.8,23.8z"/>
		<path class="st6" d="M33,45.3c0-1.5,0-2.9,0-4.4c0-0.4-0.1-1,0.5-1c1.5-0.1,3-0.1,4.6,0c0.6,0,0.5,0.6,0.5,1c0,1.5,0,2.9,0,4.4
			C36.7,45.3,34.9,45.3,33,45.3z"/>
	</g>
</g>
<g id="Layer_7" class="st0">
	<g class="st1">
		<path d="M60,32.4c0-0.3-0.1-0.6-0.3-0.8c-0.2-0.1-0.4-0.2-0.6-0.3c-0.2,0.1-0.4,0.1-0.7,0.1s-0.5,0-0.7,0c-0.1,0-0.2,0-0.4,0
			c-1.1-0.1-1.2-0.4-2-2c-1-1.8-1.1-3.1,0.7-4.4c0.9-0.7,0.8-1.6,0-2.4c-1-1-2.1-2-3.1-3c-1.4-1.4-2-1.3-3.3,0.2
			c-1,1.2-2,1.3-3.3,0.6c-0.4-0.2-0.8-0.5-1.2-0.6c-1.8-0.5-1.8-0.5-1.8-2.5c0-0.1,0-0.3,0-0.4c0-1.6-0.3-1.9-1.9-1.9
			c-1.6,0-3.1,0-4.7,0c-1.4,0-1.9,0.4-1.9,1.9c0,2.7,0.1,2-2.2,3.2c-2,1-3.3,0.8-4.7-0.9c-0.6-0.8-1.4-0.7-2.1,0
			c-1,0.9-1.9,1.8-2.9,2.7c-2.1,2-2.1,2.1,0.1,4c0.7,0.6,0.9,1.2,0.4,2c-0.4,0.7-0.7,1.4-0.9,2.1c-0.2,0.8-0.8,1.3-1.7,1.3
			c-0.6,0-1.2,0-1.8,0c-1.1,0-1.5,0.4-1.5,1.6c0,1.5,0,3,0,4.4c0,1.7,0.2,2,1.8,1.9c2.9,0,2.5,0.3,3.5,2.2c0.9,1.9,0.8,3-0.8,4.2
			c-0.9,0.7-0.8,1.4,0,2.2c1,1,2.1,1.9,3.1,3c1.2,1.2,2.2,1.5,3.4,0c0.9-1.2,1.9-1.3,3.2-0.6c0.4,0.2,0.7,0.5,1.1,0.6
			c1.6,0.4,2,1.4,1.9,3c-0.1,1.5,0.4,1.9,1.9,1.9c1.4,0,2.7,0,4.1,0c2.1,0,2.5-0.3,2.5-2.6c0-1,0.4-1.7,1.3-2.1
			c0.3-0.1,0.6-0.3,1-0.5c2.1-1,2.9-0.8,4.5,0.8c0.6,0.7,1.3,0.8,2,0.2c1.5-1.3,2.9-2.6,4.2-4c0.5-0.6,0.5-1.2-0.1-1.8
			c-0.4-0.4-0.9-0.8-1.4-1.2c-0.4-0.3-0.8-0.8-0.5-1.3c0.5-1,0.8-2,1.4-3c0.3-0.6,0.9-0.9,1.6-1c0.5,0,0.9,0,1.4,0
			c0.4,0,0.7,0,0.9,0 M41.5,44c-0.8,0.2-1.7,0.3-2.5,0.3c-2.3,0.1-4.4-0.8-6.2-2.3c-4.5-3.7-4.1-10.4,0.8-13.8c4.1-2.9,9.8-2,13,1.9
			C50.6,35,47.8,42.5,41.5,44z"/>
		<path d="M20.7,9.7c-2.3,0-5.1,1-7.6,3c-4.5,3.7-5,11.4-1.1,15.7c0.9,1,1.8,1.9,3,2.6c0.8,0.4,1.2,1.1,0.9,2.1
			c-0.2,0.7-0.2,1.5-0.3,2.3s-0.5,1.2-1.2,0.8c-1.3-0.7-2.3-0.4-3.3,0.7c-1.2,1.3-1.9,1.2-3.1,0c-1-1-2.1-2-3.1-3
			c-0.7-0.7-0.8-1.5,0-2.1c1.8-1.3,1.9-2.7,0.8-4.7c-1-1.8-0.8-1.9-2.9-2c-0.4,0-0.8,0-1.2,0c-0.7-0.1-1.2-0.5-1.2-1.2
			c0-1.8,0-3.6,0-5.5c0-0.7,0.5-1.1,1.2-1.2C2.4,17.1,3.3,17,4.1,17c0.5,0,0.8-0.1,1-0.6c0.3-1,0.8-2,1.3-2.9c0.3-0.6,0.2-1-0.3-1.4
			c-0.5-0.5-1-1-1.5-1.5C4,10.1,4,9.4,4.6,8.8C6,7.5,7.3,6.2,8.7,5c0.5-0.5,1.1-0.4,1.6,0c0.3,0.2,0.7,0.5,0.9,0.8
			c0.9,1.2,2,1.4,3.3,0.6c0.6-0.4,1.4-0.6,2.1-0.8c0.7-0.2,0.9-0.6,0.9-1.3C17.6,1,17.6,1,20.7,1c1.2,0,2.5,0,3.7,0
			c0.9,0,1.4,0.5,1.3,1.4c-0.3,2.3,0.9,3.2,2.7,3.9c2,0.8,2.9,0.6,4.4-1c0.6-0.7,1.3-0.8,2-0.1c1.3,1.2,2.6,2.4,3.9,3.7
			c0.6,0.6,0.6,1.2,0,1.8c-0.4,0.4-0.9,0.9-1.3,1.3c-0.4,0.4-0.8,0.8-0.5,1.5c0.2,0.4-0.1,0.7-0.5,0.7c-1.3,0.3-2.5,0.6-3.8,0.8
			c-0.5,0.1-0.7-0.3-0.9-0.6C28.9,11.3,25.6,9.6,20.7,9.7z"/>
		<path class="st2" d="M40.2,31.4c0,2.7,0,2.7,2.6,2.7c0.4,0,0.8,0,1.3,0c1-0.1,1.2,0.3,1.2,1.3c0,0.9-0.2,1.4-1.2,1.3
			c-1-0.1-2,0-2.9,0c-0.7,0-1,0.2-1,1c0,1.2,0,2.4,0,3.5c0,0.7-0.2,1-0.9,1c-1.7,0-1.7,0.1-1.7-1.8c0-0.9,0-1.8,0-2.7
			c0-0.7-0.2-1-1-1c-1,0-2.1,0-3.1,0s-1-0.6-1-1.3s0-1.3,1-1.2s2,0,3,0c0.8,0,1.1-0.2,1.1-1.1c0-1.1,0-2.3,0-3.4
			c0-1.2,0.8-0.9,1.4-0.9c0.7,0,1.3,0,1.2,1C40.1,30.2,40.2,30.8,40.2,31.4z"/>
	</g>
</g>
<g id="Layer_8">
</g>
<g id="Layer_9">
</g>
</svg>
