<?xml version="1.0" encoding="utf-8"?>
<!-- Generator: Adobe Illustrator 25.4.1, SVG Export Plug-In . SVG Version: 6.00 Build 0)  -->
<svg version="1.1" id="Layer_1" xmlns="http://www.w3.org/2000/svg" xmlns:xlink="http://www.w3.org/1999/xlink" x="0px" y="0px"
	 viewBox="0 0 75.2 29.9" style="enable-background:new 0 0 75.2 29.9;" xml:space="preserve">
<style type="text/css">
	.st0{fill:#ED1F24;}
</style>
<g id="ABB_logo" transform="translate(-74.805 -14.965)">
	<path id="Path_327" class="st0" d="M116,43h1.5c4.6-0.3,8.1-4.2,7.8-8.8c-0.1-1.2-0.4-2.4-1-3.5H116V43z"/>
	<rect id="Rectangle_493" x="107.6" y="30.7" class="st0" width="7.7" height="12.3"/>
	<path id="Path_328" class="st0" d="M123.9,29.9c-0.8-1.1-1.8-1.9-3-2.5c1.4-1,2.3-2.6,2.3-4.4c0-2.9-2.3-5.4-5.3-5.4c0,0,0,0-0.1,0
		H116v12.3H123.9z"/>
	<rect id="Rectangle_494" x="107.6" y="17.6" class="st0" width="7.7" height="12.3"/>
	<path id="Path_329" class="st0" d="M136.7,43h1.5c4.6-0.3,8.1-4.2,7.8-8.8c-0.1-1.2-0.4-2.4-1-3.5h-8.3V43z"/>
	<rect id="Rectangle_495" x="128.3" y="30.7" class="st0" width="7.7" height="12.3"/>
	<path id="Path_330" class="st0" d="M144.6,29.9c-0.8-1.1-1.8-1.9-3-2.5c1.4-1,2.3-2.6,2.3-4.4c0-2.9-2.3-5.4-5.3-5.4c0,0,0,0-0.1,0
		h-1.8v12.3H144.6z"/>
	<rect id="Rectangle_496" x="128.3" y="17.6" class="st0" width="7.7" height="12.3"/>
	<path id="Path_331" class="st0" d="M84.4,30.7L80,43h6.4l1.8-5.4h4.1v-6.9H84.4z"/>
	<path id="Path_332" class="st0" d="M92.3,17.6H89l-4.4,12.3h7.7L92.3,17.6z"/>
	<path id="Path_333" class="st0" d="M93.1,37.6h4.1l1.8,5.4h6.4l-4.4-12.3h-7.9V37.6z"/>
	<path id="Path_334" class="st0" d="M100.7,29.9l-4.4-12.3h-3.3v12.3H100.7z"/>
</g>
</svg>
