<?xml version="1.0" encoding="utf-8"?>
<!-- Generator: Adobe Illustrator 26.2.0, SVG Export Plug-In . SVG Version: 6.00 Build 0)  -->
<svg version="1.1" id="Layer_1" xmlns="http://www.w3.org/2000/svg" xmlns:xlink="http://www.w3.org/1999/xlink" x="0px" y="0px"
	 viewBox="0 0 32 32" style="enable-background:new 0 0 32 32;" xml:space="preserve">
<style type="text/css">
	.st0{display:none;}
	.st1{display:inline;}
	.st2{fill:#D90000;}
	.st3{fill:#1F1F1F;}
	.st4{fill:#FF000F;}
</style>
<g class="st0">
	<g class="st1">
		<path d="M3.7,31.2c-0.4-0.1-0.7-0.4-1-0.7s-0.6-0.6-0.9-0.9c-0.6-0.6-0.6-1.4,0-2c2.7-2.7,5.4-5.4,8-8.2c0.4-0.4,0.9-0.5,1.5-0.3
			h0.1c0,0,0,0,0.1,0c0-1.3,0.9-2.3,2.3-2.2c-1.9-2.4-2.6-5.1-2.1-8c0.4-2.5,1.7-4.5,3.7-6.1c3.8-2.9,9.3-2.5,12.6,1
			c3.5,3.7,3.7,9.3,0.4,13.1c-3.3,3.9-8.9,4.5-12.9,1.5c0.1,0.7,0,1.3-0.5,1.9c-0.5,0.5-1.1,0.7-1.8,0.7c0.3,0.7,0,1.2-0.5,1.7
			c-2.5,2.6-5.1,5.1-7.6,7.7c-0.3,0.3-0.6,0.5-1,0.7L3.7,31.2L3.7,31.2z M12.2,10.7c0,5,4,9,8.9,9s8.9-4.1,8.9-9c0-5-4-9-8.9-9.1
			C16.2,1.7,12.2,5.7,12.2,10.7 M14.9,19.1c0-0.7-0.6-1.4-1.3-1.4s-1.4,0.6-1.4,1.4c0,0.7,0.6,1.4,1.4,1.4
			C14.3,20.4,14.9,19.8,14.9,19.1"/>
		<path d="M30.1,10.7c0,5-4,9-8.9,9s-8.9-4.1-8.9-9c0-5,4-9.1,8.9-9.1C26.1,1.7,30.1,5.7,30.1,10.7 M12.9,10.7
			c0,4.6,3.7,8.3,8.2,8.3c4.6,0,8.3-3.8,8.2-8.4c0-4.6-3.7-8.3-8.3-8.3C16.6,2.4,12.9,6.2,12.9,10.7"/>
		<path class="st2" d="M21,15.8c-1.7,0-3.3,0-5,0c-0.5,0-0.5-0.1-0.5-0.6c0-3,0-6.1,0-9.1c0-0.1,0-0.2,0-0.2c0-0.2,0.1-0.3,0.3-0.3
			s0.3,0.1,0.3,0.3c0,0.1,0,0.3,0,0.4c0,2.8,0,5.7,0,8.5c0,0.2,0,0.3,0.3,0.3c3.2,0,6.4,0,9.6,0c0.1,0,0.2,0,0.3,0
			c0.2,0,0.3,0.2,0.3,0.3c0,0.2-0.1,0.3-0.2,0.3s-0.2,0-0.3,0C24.3,15.8,22.6,15.8,21,15.8L21,15.8z"/>
		<path class="st2" d="M16.4,14.2c0-0.1,0.1-0.2,0.1-0.3c0.3-0.3,0.6-0.6,1-0.8c0.1-0.1,0.2-0.1,0.3-0.1c0.2,0.1,0.5,0.1,0.7,0.2
			c0.1,0,0.2,0,0.2-0.1c0.3-0.7,0.5-1.4,0.8-2.1c0.1-0.1,0.1-0.2,0.3-0.3c0.4-0.2,0.7-0.3,1-0.5c0.1-0.1,0.2-0.1,0.3,0
			c0.3,0.1,0.5,0.3,0.8,0.4c0.1,0.1,0.2,0,0.3,0c0.4-0.4,0.7-0.7,1.1-1.1c0.1-0.1,0.1-0.2,0.1-0.2c0.3-0.6,0.6-1.3,1-1.9
			c0-0.1,0.1-0.1,0.1-0.2c0.1-0.1,0.2-0.2,0.4-0.1s0.2,0.2,0.1,0.4c-0.4,0.8-0.8,1.6-1.2,2.4c-0.1,0.2-0.3,0.3-0.4,0.4
			c-0.4,0.4-0.7,0.7-1.1,1.1c-0.1,0.1-0.2,0.2-0.4,0.1c-0.3-0.2-0.6-0.3-0.8-0.4c-0.1-0.1-0.2-0.1-0.3,0l0,0
			c-0.6,0.2-0.9,0.6-1.1,1.2c-0.2,0.6-0.4,1.2-0.7,1.8c-0.1,0.2-0.2,0.3-0.4,0.2c-0.2-0.1-0.5-0.1-0.7-0.2s-0.3,0-0.5,0.1
			c-0.2,0.2-0.5,0.4-0.7,0.6c-0.1,0.1-0.2,0.1-0.3,0C16.5,14.4,16.4,14.3,16.4,14.2"/>
	</g>
</g>
<g class="st0">
	<g class="st1">
		<path d="M13.1,1.6c8.6,0.1,14,9.4,9.9,17c-0.4,0.8-0.3,1.1,0.4,1.6c2.4,1.5,4.7,3.1,7.1,4.6c0.9,0.6,1.3,1.3,1.2,2.4
			c-0.1,1-1.4,2.5-2.4,2.7s-1.8-0.2-2.5-1c-1.9-2.1-3.8-4.2-5.7-6.3c-0.5-0.6-0.8-0.5-1.4-0.1c-4.1,2.8-8.4,3-12.7,0.5
			c-4-2.3-6.1-7-5.3-11.7c0.9-4.8,3.8-7.8,8.4-9.2C11.1,1.7,12.1,1.6,13.1,1.6 M3.8,13.1c0,5.1,4.1,9.2,9.1,9.2s9.2-4.1,9.3-9.1
			c0-5-4.2-9.3-9.2-9.3C7.9,3.9,3.8,8,3.8,13.1"/>
		<path class="st2" d="M13,17.1c-1.9,0-3.8,0-5.7,0c-1.2,0-1.4-0.4-0.7-1.4c1.8-3,3.7-5.9,5.5-8.9c0.6-1,1.1-1,1.7,0
			c1.8,3,3.7,5.9,5.5,8.9c0.6,1,0.4,1.3-0.8,1.4C16.7,17.1,14.8,17.1,13,17.1L13,17.1z M14,10.2L14,10.2c0-0.3,0-0.6,0-0.9
			c0-0.7-0.3-1.1-1-1.1s-1.1,0.3-1.1,1.1c0,1.4,0.1,2.7,0.4,4.1c0.1,0.4,0.2,0.7,0.7,0.7c0.4,0,0.6-0.2,0.7-0.7
			C13.7,12.3,13.9,11.3,14,10.2 M13.7,15.4c-0.1-0.5-0.3-0.8-0.8-0.8s-0.7,0.3-0.8,0.8c0,0.5,0.3,0.8,0.8,0.8
			C13.4,16.2,13.7,15.9,13.7,15.4"/>
	</g>
</g>
<g id="Layer_4" class="st0">
	<g class="st1">
		<path d="M27.5,28.9C27.5,28.8,27.5,28.8,27.5,28.9c-0.4-0.2-0.6-0.4-0.8-0.6c-1.7-1.7-3.4-3.4-5.1-5.1c-0.1-0.1-0.1-0.2,0-0.3
			c0.6-0.6,1.2-1.2,1.8-1.7c0.1-0.1,0.2-0.1,0.3,0c0.4,0.5,0.9,0.9,1.3,1.3c1.3,1.2,2.5,2.5,3.8,3.7c0.2,0.2,0.4,0.4,0.5,0.6
			c0,0.1,0.1,0.1,0.1,0.1v1c-0.1,0-0.1,0.1-0.2,0.1c-0.1,0.3-0.4,0.5-0.7,0.7c-0.1,0-0.1,0.1-0.1,0.2C28.4,28.9,27.5,28.9,27.5,28.9
			z"/>
		<path d="M16.9,1.1c0,0.1,0,0.1,0.1,0.1c0.5,0.2,0.7,0.7,0.7,1.2s0,0.9,0,1.4c0,0.2,0,0.3,0.3,0.3c0.6,0.2,1.2,0.3,1.8,0.6
			c0.6,0.2,1.1,0.5,1.6,0.8c0.2,0.1,0.3,0.1,0.4-0.1c0.4-0.4,0.8-0.7,1.1-1.1C23.3,4,24,4,24.5,4.4c0.5,0.5,1,1,1.5,1.5
			s0.3,1.3-0.1,1.7c-0.3,0.3-0.7,0.7-1,1c-0.1,0.1-0.2,0.2,0,0.4c0.4,0.7,0.8,1.4,1,2.1c0.2,0.5,0.3,0.9,0.4,1.4
			c0,0.2,0.1,0.2,0.3,0.2c0.6,0,1.2,0,1.7,0s1,0.6,1,1.1c0,0.7,0,1.4,0,2.1c0,0.6-0.5,1.1-1.1,1.1c-0.5,0-1.1,0-1.6,0
			c-0.2,0-0.2,0.1-0.3,0.2c-0.1,0.5-0.3,1-0.4,1.5c-0.1,0.4-0.3,0.8-0.5,1.2c-0.1,0.1-0.1,0.2-0.2,0.3c-0.1,0.2-0.2,0.2-0.3,0
			c-0.3-0.3-0.7-0.7-1-1c-0.2-0.2-0.3-0.3-0.5-0.5c-0.1-0.1-0.1-0.2,0-0.3c0.5-1,0.7-2,0.8-3c0-0.6,0-1.2-0.1-1.7
			c-0.1-0.7-0.3-1.5-0.6-2.2s-0.7-1.4-1.1-2c-0.7-0.9-1.6-1.7-2.7-2.3C18.8,7,18,6.7,17.1,6.5c-1.2-0.3-2.5-0.2-3.7,0
			c-0.9,0.2-1.7,0.5-2.4,1s-1.3,1-1.9,1.6c-0.7,0.7-1.2,1.6-1.6,2.5s-0.6,1.9-0.6,2.9c0,0.9,0,1.7,0.2,2.5c0.3,1.1,0.8,2.1,1.5,3
			c0.8,1,1.7,1.8,2.9,2.5c0.9,0.5,1.8,0.8,2.8,0.9c0.8,0.1,1.7,0.1,2.5,0c0.7-0.1,1.3-0.3,1.9-0.5c0.1-0.1,0.3-0.1,0.4-0.2
			s0.2,0,0.3,0.1c0.5,0.5,1,1,1.5,1.5c0.1,0.1,0.1,0.2,0,0.3c-0.2,0.1-0.5,0.3-0.7,0.4c-0.3,0.1-0.6,0.3-1,0.4
			c-0.5,0.2-0.9,0.3-1.4,0.4c-0.2,0-0.3,0.1-0.3,0.3c0,0.5,0,1,0,1.5c0,0.7-0.5,1.2-1.2,1.2s-1.3,0-2,0c-0.8,0-1.2-0.5-1.2-1.3
			c0-0.5,0-1,0-1.5c0-0.2-0.1-0.2-0.2-0.3c-0.8-0.2-1.6-0.4-2.3-0.8c-0.4-0.2-0.8-0.4-1.2-0.7c-0.1-0.1-0.2-0.1-0.3,0
			c-0.4,0.4-0.8,0.8-1.2,1.2c-0.4,0.3-1,0.3-1.5,0c-0.4-0.3-0.7-0.8-1.1-1.1C5.1,24.1,5,24,4.8,23.8c-0.3-0.4-0.3-1.2,0.2-1.6
			c0.4-0.3,0.7-0.7,1-1C6.2,21,6.2,21,6,20.8c-0.4-0.6-0.7-1.2-0.9-1.8c-0.2-0.5-0.4-1.1-0.5-1.6c0-0.2-0.1-0.2-0.3-0.2
			c-0.5,0-1,0-1.6,0c-0.5,0-0.8-0.2-1.1-0.6c0-0.1-0.1-0.1-0.1-0.1v-3c0.1,0,0.1,0,0.1-0.1C2,12.9,2.4,12.7,3,12.7
			c0.5,0,0.9,0,1.4,0c0.1,0,0.2,0,0.3-0.2c0.1-0.5,0.2-1,0.4-1.5c0.2-0.7,0.6-1.3,1-1.9c0.1-0.2,0.1-0.3,0-0.5
			C5.7,8.2,5.3,7.9,5,7.5C4.5,6.9,4.5,6.3,5,5.8s1-0.9,1.4-1.4C6.9,4,7.5,4,8,4.4c0.4,0.3,0.8,0.7,1.1,1.1c0.2,0.2,0.3,0.2,0.5,0
			s0.5-0.3,0.7-0.4c0.4-0.2,0.9-0.4,1.3-0.6s0.9-0.3,1.3-0.4C13.2,4,13.2,4,13.2,3.7c0-0.5,0-1,0-1.5s0.2-0.8,0.6-1.1
			C14,1.2,14,1.2,14,1.1H16.9z"/>
		<path class="st2" d="M22.7,14.9c0,0.7-0.1,1.3-0.3,2s-0.5,1.3-0.9,1.9c-0.2,0.3-0.5,0.6-0.8,0.9c-0.4,0.4-0.9,0.8-1.3,1.2
			c-0.2,0.2-0.4,0.3-0.6,0.4c-0.5,0.2-0.9,0.4-1.4,0.6c-0.8,0.2-1.6,0.3-2.5,0.3c-0.5,0-0.9-0.1-1.3-0.2c-0.3-0.1-0.7-0.2-1-0.3
			c-0.6-0.2-1.1-0.5-1.6-0.9c-1-0.7-1.7-1.6-2.2-2.7c-0.4-0.7-0.6-1.5-0.7-2.3c-0.1-1-0.1-2.1,0.3-3.1c0.4-1.3,1.1-2.4,2.2-3.4
			c0.6-0.5,1.2-0.9,1.8-1.2c0.7-0.3,1.5-0.5,2.2-0.6c0.8-0.1,1.5,0,2.3,0.1c0.7,0.1,1.3,0.4,2,0.7c0.7,0.4,1.4,0.9,2,1.5
			s1,1.3,1.3,2C22.5,12.9,22.8,14,22.7,14.9 M16.1,11L16.1,11c0-0.1,0-0.2,0-0.2c0-0.2-0.1-0.3-0.3-0.3c-0.1,0-0.3,0-0.4,0
			c-0.2,0-0.3,0.1-0.3,0.3s0,0.3,0,0.5s0,0.3-0.2,0.3c-0.3,0.1-0.5,0.2-0.8,0.3c-0.5,0.4-0.8,0.9-0.8,1.6c0,0.6,0.3,1.1,0.8,1.4
			s1,0.5,1.6,0.8c0.4,0.2,0.6,0.5,0.5,0.9c0,0.4-0.3,0.6-0.7,0.6c-0.5,0-0.8-0.3-0.9-0.8c0-0.2-0.1-0.3-0.3-0.3c-0.3,0-0.7,0-1,0
			c-0.1,0-0.2,0.1-0.2,0.2c0,0.4,0.1,0.7,0.3,1c0.3,0.5,0.8,0.8,1.4,0.9c0.2,0,0.3,0.1,0.3,0.3c0,0.1,0,0.3,0,0.4
			c0,0.2,0.1,0.3,0.3,0.3c0.1,0,0.3,0,0.4,0c0.2,0,0.3-0.1,0.3-0.3c0-0.1,0-0.3,0-0.4c0-0.2,0.1-0.3,0.3-0.4
			c0.7-0.2,1.1-0.6,1.3-1.3c0.1-0.8,0-1.5-0.8-2c-0.5-0.3-1-0.5-1.5-0.8c-0.3-0.1-0.5-0.3-0.6-0.7c0-0.1,0-0.3,0-0.4
			c0.1-0.5,0.6-0.6,1-0.4c0.2,0.1,0.3,0.3,0.3,0.5c0,0.3,0.1,0.3,0.4,0.3s0.6,0,0.8,0c0.2,0,0.3-0.2,0.3-0.4c0-0.1-0.1-0.2-0.1-0.4
			c-0.2-0.7-0.6-1.1-1.3-1.3c-0.2-0.1-0.3-0.2-0.3-0.4C16.1,11.1,16.1,11,16.1,11"/>
		<path d="M22.8,20.2C22.8,20.3,22.8,20.3,22.8,20.2c-0.7,0.7-1.3,1.3-2,1.9c-0.1,0.1-0.2,0.1-0.3,0c-0.2-0.2-0.3-0.3-0.5-0.5
			c-0.1-0.1-0.1-0.2,0-0.3c0.6-0.6,1.2-1.2,1.8-1.8c0.1-0.1,0.2-0.1,0.2,0C22.3,19.7,22.5,19.9,22.8,20.2
			C22.7,20.1,22.8,20.2,22.8,20.2"/>
	</g>
</g>
<g id="Layer_5" class="st0">
	<g class="st1">
		<path d="M5,18.1c1,0,1.9,0,2.9,0c0.3,0,0.4,0.1,0.4,0.4c0.1,3.2,2.2,5.7,5.3,6.4c3.7,0.9,7.6-1.9,8-5.6c0-0.2,0.1-0.4,0.1-0.6
			c0-0.5,0-0.5,0.5-0.5c1.9,0,3.8,0,5.7,0c0.3,0,0.4,0.1,0.4,0.4c0,0.2,0,0.4,0,0.6c0,0.4-0.2,0.6-0.6,0.6c-0.5,0-1.1,0.1-1.7,0.1
			s-0.7,0.1-0.8,0.7c-0.1,0.4-0.2,0.8-0.3,1.1s0,0.6,0.3,0.8c0.5,0.3,1,0.7,1.5,1c0.4,0.3,0.4,0.5,0.2,0.9s-0.5,0.9-0.8,1.3
			c-0.2,0.4-0.4,0.4-0.8,0.2c-0.5-0.3-1.1-0.5-1.6-0.8c-0.3-0.2-0.6-0.1-0.8,0.2c-0.3,0.3-0.6,0.6-0.9,0.9c-0.3,0.2-0.3,0.5-0.1,0.8
			c0.3,0.5,0.5,1.1,0.8,1.6c0.2,0.4,0.1,0.6-0.3,0.9s-0.9,0.5-1.3,0.8c-0.3,0.2-0.5,0.1-0.8-0.2c-0.3-0.5-0.7-1-1-1.5
			c-0.2-0.3-0.4-0.4-0.8-0.3s-0.9,0.2-1.3,0.3c-0.3,0.1-0.5,0.2-0.5,0.6c0,0.6-0.1,1.2-0.1,1.8c0,0.4-0.2,0.6-0.6,0.6
			c-0.5,0-1,0-1.5,0c-0.4,0-0.6-0.2-0.6-0.6c0-0.6-0.1-1.2-0.1-1.8c0-0.3-0.2-0.5-0.5-0.6c-0.5-0.1-0.9-0.2-1.3-0.4
			c-0.3-0.1-0.5,0-0.7,0.3c-0.3,0.5-0.7,1-1,1.5c-0.3,0.4-0.5,0.4-0.9,0.2s-0.9-0.5-1.3-0.8c-0.4-0.2-0.4-0.4-0.2-0.8
			c-0.2-0.6,0-1.1,0.3-1.6c0.2-0.3,0.1-0.6-0.2-0.8c-0.3-0.3-0.6-0.6-0.9-0.9C6.9,25,6.6,25,6.3,25.2c-0.5,0.3-1.1,0.5-1.6,0.8
			c-0.4,0.2-0.6,0.1-0.8-0.3s-0.5-0.9-0.7-1.3C3,24,3,23.8,3.4,23.5c0.5-0.3,1-0.7,1.5-1C5.1,22.2,5.1,22,5,21.7
			c-0.1-0.4-0.3-0.9-0.3-1.3c-0.1-0.3-0.2-0.5-0.6-0.5c-0.6,0-1.1-0.1-1.7-0.1c-0.5,0-0.7-0.2-0.7-0.7c0-0.2,0-0.4,0-0.6
			c0-0.3,0.1-0.3,0.4-0.3C3,18.1,4,18.1,5,18.1"/>
		<path d="M15.6,1.8c1.6,0,3.5,0.4,5.3,1.2c0.3,0.1,0.4,0.2,0.1,0.5s-0.5,0.6-0.7,0.9c-0.1,0.2-0.3,0.2-0.5,0.1
			C18,3.7,16,3.4,14.1,3.6c-3.5,0.4-6.4,2-8.5,4.8c-1.5,2-2.3,4.4-2.3,6.9c0,0.6-0.4,1-0.9,1s-0.9-0.4-0.9-1C1.8,9.7,4.5,5.5,9.6,3
			C11.4,2.2,13.3,1.8,15.6,1.8"/>
		<path class="st2" d="M14.8,17c-0.6,0-1.1-0.3-1.4-0.9c-0.3-0.6-0.2-1.2,0.2-1.7c1-1.3,2-2.6,3.1-3.9c1.9-2.4,3.7-4.7,5.6-7.1
			c0.2-0.3,0.5-0.5,0.9-0.4c0.5,0.1,0.8,0.7,0.5,1.2c-0.2,0.4-0.4,0.7-0.7,1c-2.3,3.6-4.5,7.2-6.8,10.8C15.9,16.6,15.4,16.9,14.8,17
			"/>
		<path d="M28.9,14.9c0,0.2,0,0.3,0,0.5c0,0.6-0.4,1-0.9,1s-0.9-0.4-0.9-1c0-1-0.1-2-0.4-3c-0.6-2.1-1.7-4-3.3-5.5
			c-0.2-0.2-0.2-0.3-0.1-0.5c0.2-0.3,0.4-0.6,0.6-1c0.1-0.2,0.2-0.3,0.4-0.1c1.7,1.5,2.9,3.4,3.7,5.5C28.6,12.2,28.8,13.5,28.9,14.9
			"/>
		<path d="M6.8,14.4c0.4,0,0.8,0,1.2,0c0.5,0,0.9,0.4,1,0.9c0,0.5-0.4,0.9-0.9,0.9c-0.9,0-1.7,0-2.6,0c-0.6,0-0.9-0.4-0.9-0.9
			s0.4-0.9,0.9-0.9C5.9,14.4,6.4,14.4,6.8,14.4"/>
		<path d="M10,11.8c0,0.7-0.7,1.1-1.3,0.8c-0.8-0.4-1.6-0.9-2.4-1.4C5.9,10.9,5.8,10.4,6,10s0.7-0.6,1.2-0.3C8,10.1,8.8,10.5,9.6,11
			C9.9,11.2,10,11.4,10,11.8"/>
		<path d="M20.6,12c0-0.3,0.1-0.6,0.4-0.8c0.8-0.5,1.5-0.9,2.3-1.3c0.4-0.2,1-0.1,1.2,0.3c0.3,0.4,0.1,1-0.3,1.2
			c-0.8,0.5-1.5,0.9-2.3,1.3C21.2,13.2,20.6,12.7,20.6,12"/>
		<path d="M12.7,9.2c0,0.4-0.2,0.7-0.6,0.8c-0.4,0.1-0.8,0-1-0.3c-0.5-0.8-1-1.6-1.4-2.5c-0.2-0.4,0-0.9,0.4-1.1
			C10.4,5.9,11,6,11.2,6.4c0.5,0.8,0.9,1.6,1.4,2.4C12.7,9,12.7,9.1,12.7,9.2"/>
		<path d="M14.5,7c0-0.4,0-0.9,0-1.3c0-0.5,0.4-0.9,0.9-0.9s0.9,0.4,0.9,0.9c0,0.9,0,1.7,0,2.6c0,0.5-0.4,0.9-0.9,0.9
			s-0.9-0.3-0.9-0.9c0-0.2,0-0.4,0-0.7V7L14.5,7z"/>
		<path d="M23.6,16.5c-0.4,0-0.9,0-1.3,0c-0.5,0-0.9-0.4-0.9-0.9s0.4-0.9,0.9-0.9c0.9,0,1.7,0,2.6,0c0.5,0,0.9,0.4,0.9,0.9
			s-0.4,0.9-0.9,0.9C24.5,16.5,24.1,16.5,23.6,16.5"/>
	</g>
</g>
<g id="Layer_6" class="st0">
	<g class="st1">
		<path d="M10.5,12.9C10,12.3,9.4,12,8.7,11.8c-0.3-0.1-0.6-0.1-0.8-0.1s-0.2,0-0.1-0.2c0.3-0.5,0.5-0.9,0.9-1.3
			c0.1-0.1,0.1-0.2,0-0.3C8.2,9.5,7.8,9.1,7.4,8.7c-0.6-0.6-0.6-1.6,0-2.2C8,6,9,6,9.6,6.6C10,7,10.4,7.4,10.8,7.8
			c0.1,0.1,0.2,0.1,0.3,0c1.5-1.1,3.1-1.9,5-2.2c0.1,0,0.2,0,0.3-0.1c0.3,0,0.3,0,0.3-0.3c0-0.4,0-0.8,0-1.2c0-0.1,0-0.2-0.2-0.2
			c-0.3,0-0.6,0-1,0c-0.8,0-1.4-0.6-1.5-1.3c-0.1-0.8,0.4-1.4,1.2-1.6c0.1,0,0.3,0,0.4,0c1.7,0,3.5,0,5.2,0c0.6,0,1.1,0.3,1.4,0.9
			s0.2,1.1-0.2,1.6C21.7,3.8,21.3,4,20.8,4c-0.3,0-0.6,0-1,0c-0.1,0-0.2,0-0.2,0.2c0,0.4,0,0.9,0,1.3c0,0.2,0.1,0.2,0.2,0.2
			c1.6,0.2,3,0.8,4.4,1.6c0.3,0.2,0.6,0.4,0.9,0.6c0.1,0.1,0.2,0.1,0.3,0c0.4-0.4,0.8-0.8,1.2-1.2c0.9-0.8,2.3-0.5,2.5,0.7
			c0.1,0.5,0,1-0.4,1.4s-0.8,0.8-1.2,1.2c-0.1,0.1-0.1,0.2,0,0.3c1.4,2,2.2,4.2,2.3,6.6c0.1,3.4-1.1,6.3-3.4,8.7
			c-1.9,1.9-4.2,3-6.9,3.4c-1.8,0.2-3.6,0-5.4-0.6c0,0,0,0-0.1,0c0-0.1,0.1-0.1,0.1-0.1c0.6-0.3,1.1-0.8,1.4-1.3
			c0.2-0.3,0.4-0.6,0.5-0.9c0.1-0.1,0.2-0.2,0.3-0.1c1.5,0.3,3,0.2,4.4-0.3c3.3-1.2,5.4-3.5,5.9-7c0.5-2.9-0.4-5.4-2.5-7.5
			c-1.9-1.9-4.2-2.7-6.8-2.5C14.3,9,12,10.4,10.5,12.9C10.6,12.8,10.6,12.8,10.5,12.9"/>
		<rect x="16.4" y="3.8" class="st2" width="3.4" height="1.7"/>
		<path d="M2.1,16.7c0.2,0,0.3,0,0.4,0.1c0.3,0.1,0.6,0.2,0.9,0.3c0.1,0,0.2,0,0.3,0c0.5-0.4,1.1-0.8,1.7-1c0.1,0,0.1-0.1,0.2-0.2
			c0.1-0.3,0.1-0.7,0.2-1C5.9,14.3,6.3,14,6.9,14c0.4,0,0.7,0,1.1,0c0.6,0,1,0.3,1.1,0.9c0.1,0.3,0.1,0.7,0.2,1
			c0,0.1,0.1,0.2,0.2,0.2c0.6,0.2,1.2,0.6,1.7,1c0.1,0.1,0.1,0.1,0.2,0c0.3-0.1,0.7-0.2,1-0.4c0.5-0.2,1,0,1.3,0.5
			c0.2,0.3,0.4,0.6,0.5,0.9c0.3,0.5,0.2,1-0.2,1.4c-0.3,0.2-0.5,0.4-0.8,0.7c-0.1,0.1-0.1,0.1-0.1,0.3c0.1,0.7,0.1,1.3,0,2
			c0,0.1,0,0.2,0.1,0.3c0.3,0.2,0.5,0.4,0.8,0.7c0.4,0.3,0.5,0.9,0.2,1.3c-0.2,0.3-0.4,0.7-0.6,1c-0.3,0.5-0.8,0.6-1.3,0.4
			c-0.3-0.1-0.7-0.2-1-0.4c-0.1,0-0.2,0-0.3,0c-0.5,0.4-1.1,0.8-1.8,1c-0.1,0-0.1,0.1-0.1,0.2c0.1,0.3,0,0.7-0.1,1
			c-0.1,0.5-0.5,0.9-1,0.9c-0.4,0-0.8,0-1.2,0c-0.5,0-0.9-0.3-1-0.8c-0.1-0.4-0.1-0.7-0.2-1.1c0-0.1-0.1-0.2-0.2-0.2
			c-0.6-0.2-1.2-0.6-1.7-1c-0.1-0.1-0.2-0.1-0.3-0.1c-0.3,0.1-0.6,0.2-1,0.4c-0.5,0.2-1,0-1.3-0.5c-0.2-0.3-0.4-0.6-0.5-0.9
			c-0.3-0.5-0.2-1,0.2-1.4c0.3-0.2,0.5-0.5,0.8-0.7c0.1-0.1,0.1-0.1,0.1-0.2c-0.1-0.7-0.1-1.4,0-2c0-0.1,0-0.2-0.1-0.2
			c-0.3-0.2-0.5-0.4-0.8-0.7c-0.4-0.3-0.5-0.9-0.2-1.3c0.2-0.3,0.4-0.7,0.6-1C1.5,16.9,1.8,16.7,2.1,16.7 M7.4,19.3
			c-1.2,0-2.2,1-2.2,2.2s1,2.2,2.1,2.2c1.2,0,2.2-1,2.2-2.2C9.6,20.2,8.6,19.3,7.4,19.3"/>
		<path class="st2" d="M18.6,15c0.2,0.1,0.4-0.1,0.5-0.2c1-0.8,2-1.6,3-2.4c0.4-0.3,0.9-0.3,1.3,0s0.4,0.9,0.1,1.3
			c-0.5,0.7-1,1.3-1.6,2c-0.3,0.4-0.6,0.8-0.9,1.2c-0.1,0.1-0.1,0.2-0.1,0.3c0.1,1.1-0.7,2.2-1.8,2.4c-1.2,0.2-2.3-0.5-2.6-1.6
			C15.9,16.5,17,15,18.6,15"/>
	</g>
</g>
<g id="Layer_7" class="st0">
	<g class="st1">
		<path d="M10,2.9c0,1,0,1.2,0.7,1.2h4.4c0.1-0.1,0.3,0,0.5,0h0.6c0.4-0.1,0.5-0.4,0.5-0.9s0-1,0-1.4c0-0.6-0.2-0.8-0.8-0.8
			c-1.3,0-2.7,0-4,0C9.8,1.1,10,0.8,10,2.9"/>
		<path d="M24.8,13.1c-1.6-4.4-4.6-7-9.1-8c-0.2,0-0.5,0-0.6-0.1c-1.2,0-2.4,0-3.6-0.1C11.4,5,11.2,5.1,11,5.1
			C5.5,6.2,1.5,11,1.3,16.5c-0.2,6.2,4.4,11.6,10.6,12.4c1.8,0.2,3.5,0.1,5.3-0.6c-0.5-0.5-1-1.1-1-1.7c0-0.7-0.2-0.7-0.8-0.5
			C8.7,27.5,2.7,21.5,4.3,14.8c1-4,4.2-6.8,8.3-7.2c3.9-0.4,7.7,1.9,9.3,5.7c0.2,0.4,0.4,0.6,0.8,0.5c0.7-0.1,1.5-0.1,2.4,0.4
			C25,13.7,24.9,13.4,24.8,13.1"/>
		<path d="M23.2,29c-0.8,0.1-1.1-0.3-1.2-1c-0.1-0.9-1.2-1.3-1.9-0.8c-0.6,0.5-1.1,0.3-1.6-0.2s-0.6-1-0.1-1.6
			c0.5-0.7,0.1-1.7-0.8-1.9c-0.7-0.1-1-0.5-1-1.2s0.1-1.2,0.9-1.3c1-0.2,1.4-1.1,0.8-2c-0.4-0.6-0.3-1,0.2-1.5s0.9-0.7,1.6-0.2
			c0.8,0.6,1.8,0.2,1.9-0.8c0.1-0.7,0.5-1,1.2-1s1.2,0.1,1.3,0.9c0.1,1,1.1,1.4,2,0.8c0.7-0.5,1.1-0.2,1.6,0.3s0.6,0.9,0.2,1.5
			c-0.6,0.8-0.2,1.8,0.8,1.9c0.8,0.1,1,0.6,1,1.3s-0.3,1.1-1,1.2c-0.9,0.1-1.3,1.1-0.8,1.9c0.5,0.6,0.4,1.1-0.2,1.6
			c-0.5,0.5-1,0.7-1.6,0.2c-0.7-0.5-1.7-0.1-1.9,0.8S23.9,29.1,23.2,29 M22.9,24.7c0,0.2-0.1,0.4,0.1,0.5s0.3,0,0.4-0.2
			c0.5-1,1-1.9,1.5-2.9c0.2-0.3,0.1-0.5-0.3-0.6c-0.4,0-0.9,0.1-1.1-0.2s0.1-0.8,0.1-1.2c0-0.1,0-0.2,0.1-0.4c0-0.2,0-0.4-0.2-0.4
			s-0.3,0.1-0.3,0.2c-0.5,0.9-1,1.9-1.5,2.8c-0.2,0.4-0.1,0.6,0.3,0.6c0.4,0.1,0.9-0.2,1.1,0.2c0.2,0.3-0.1,0.8-0.1,1.2
			C22.9,24.5,22.9,24.6,22.9,24.7"/>
		<path class="st2" d="M14.1,13.7c0,1,0,2,0,3c0,0.6-0.3,0.9-0.9,0.9c-2,0-4,0-5.9,0c-0.6,0-0.9-0.3-0.9-0.9c0-3.6,3.3-6.9,6.9-6.8
			c0.6,0,0.9,0.3,0.9,0.9C14.1,11.7,14.1,12.7,14.1,13.7"/>
		<path class="st2" d="M18.8,12.9c0.5,0.1,0.8,0.4,0.8,0.9s-0.3,0.7-0.8,0.7S18,14.2,18,13.6C18.1,13.2,18.4,13,18.8,12.9"/>
		<path class="st2" d="M11,22.4c-0.1,0.5-0.4,0.8-0.9,0.8s-0.7-0.3-0.7-0.8s0.3-0.8,0.9-0.7C10.8,21.6,10.9,22,11,22.4"/>
		<path class="st2" d="M14.1,23.2c0,0.5-0.3,0.8-0.8,0.8s-0.8-0.3-0.8-0.8s0.3-0.8,0.8-0.8C13.8,22.4,14.1,22.7,14.1,23.2"/>
		<path class="st2" d="M16.7,10.6c0.5,0.1,0.9,0.4,0.8,1c0,0.5-0.4,0.8-0.9,0.8c-0.6,0-0.9-0.4-0.8-1C15.8,10.9,16.1,10.6,16.7,10.6
			"/>
		<path class="st2" d="M7.9,19.3c0.5,0,0.8,0.3,0.8,0.8s-0.3,0.8-0.8,0.8s-0.8-0.3-0.8-0.8S7.4,19.3,7.9,19.3"/>
	</g>
</g>
<g id="Layer_8" class="st0">
	<g class="st1">
		<path class="st2" d="M14,18.3c-0.5,0.5-1.1,1.1-1.6,1.6c-2.6,2.6-5.2,5.2-7.7,7.7C4.5,27.8,4.2,28,3.8,28c-0.3,0-0.5-0.1-0.8-0.3
			c-0.2-0.2-0.5-0.5-0.7-0.7c-0.5-0.5-0.5-1.1,0-1.7c1.9-1.9,3.8-3.8,5.6-5.7c1.2-1.2,2.4-2.4,3.6-3.6c-0.1-0.1-0.3-0.2-0.4-0.3
			c-0.2-0.1-0.3-0.3-0.4-0.4c-3.1,3.1-6.1,6.1-9.2,9.2c-0.9,0.9-0.9,2.2,0,3.1c0.2,0.2,0.4,0.4,0.6,0.6c0.9,0.9,2.2,0.9,3.1,0
			c2.1-2.1,4.2-4.2,6.3-6.3c1-1,2.1-2.1,3.1-3.1C14.5,18.8,14.3,18.5,14,18.3"/>
		<path class="st2" d="M14.9,11.4c0.1,0,0.2,0.1,0.3,0.2l0.5,0.5c0.3-0.3,0.7-0.7,1-1c0.9-0.9,1.8-1.8,2.8-2.8
			c0.1-0.1,0.1-0.2,0.1-0.4C19.2,7,18.9,6.1,19,5.1c0-0.6,0.3-1.2,0.7-1.7c0.4-0.4,0.8-0.8,1.2-1.2c0.7-0.6,1.4-1.1,2.3-1.2
			c0.5,0,1.2,0.1,1.6,0.3c0,0.1-0.1,0.1-0.2,0.2C24,2.2,23.2,3,22.5,3.7c-0.5,0.5-0.5,1.1,0,1.7c0.7,0.7,1.4,1.4,2.1,2.1
			c0.5,0.5,1.1,0.5,1.7,0C27,6.8,27.7,6,28.5,5.3c0.2-0.2,0.2-0.2,0.3,0.1c0.4,1.2,0.1,2.4-0.7,3.4c-0.5,0.6-1.1,1.2-1.7,1.7
			s-1.3,0.7-2.1,0.6c-0.8,0-1.5-0.3-2.2-0.5c-0.2-0.1-0.3-0.1-0.4,0.1c-1.3,1.3-2.5,2.5-3.8,3.8l0.7,0.7l0,0l0,0
			c1.1-1.1,2.2-2.2,3.3-3.3c0.1-0.1,0.2-0.1,0.3-0.1c0.5,0.2,1.1,0.3,1.7,0.4c1.2,0.1,2.3-0.1,3.2-1c0.5-0.5,0.9-0.9,1.4-1.4
			c1.1-1.2,1.6-2.5,1.3-4.1c-0.1-0.7-0.4-1.4-0.8-2c-0.1-0.2-0.2-0.2-0.3,0c-1.1,1.1-2.1,2.1-3.2,3.2c-0.1,0.1-0.2,0.2-0.3,0
			c-0.7-0.7-1.4-1.4-2-2c-0.1-0.1-0.1-0.2,0-0.3c0.2-0.1,0.3-0.3,0.5-0.5c0.9-0.9,1.9-1.9,2.8-2.8c0.1-0.1,0.2-0.2,0-0.3
			c-0.3-0.1-0.5-0.3-0.8-0.4c-1.9-0.9-3.9-0.5-5.4,0.9c-0.4,0.4-0.8,0.8-1.3,1.3c-0.7,0.7-1.1,1.6-1.1,2.6c0,0.8,0.2,1.6,0.4,2.3
			c0.1,0.2,0,0.3-0.1,0.4C17.1,9.1,16,10.2,14.9,11.4"/>
		<path class="st2" d="M20.7,10.1c0.2-0.2,0.2-0.3,0-0.4c-0.1-0.1-0.3-0.2-0.4-0.4c-0.1-0.1-0.2-0.1-0.3,0c-1.2,1.2-2.4,2.4-3.5,3.5
			l0.7,0.7C18.3,12.4,19.5,11.2,20.7,10.1"/>
		<path d="M13.6,16.1c0.6,0.7,1.4,1.4,2.1,2c0.1,0.1,0.2,0.2,0.2,0.4c0.5,0.5,1,1,1.5,1.5c0.1,0.1,0.1,0.2,0,0.3
			c-0.2,0.2-0.4,0.4-0.6,0.6s-0.2,0.3-0.2,0.6c0.1,0.7,0.3,1.3,0.4,2c0,0.2,0.1,0.2,0.3,0.2c0.6,0,1.3,0,1.9,0
			c0.2,0,0.4,0.1,0.5,0.2c1.9,1.9,3.8,3.8,5.7,5.7c0.9,0.9,2.2,0.9,3.1,0c0.2-0.2,0.4-0.4,0.6-0.6c1-1,1-2.2,0-3.2
			c-1.9-1.9-3.7-3.8-5.6-5.6c-0.1-0.1-0.2-0.2-0.2-0.4c0-0.3,0-0.7,0-1l0,0c0-0.4,0-0.7,0-1.1c0-0.1,0-0.2-0.2-0.2
			c-0.7-0.1-1.4-0.3-2.1-0.4c-0.2,0-0.4,0-0.6,0.2s-0.4,0.4-0.6,0.6c-0.1,0.1-0.2,0.1-0.3,0c-0.5-0.5-1.1-1.1-1.6-1.6l-0.1-0.1l0,0
			l0,0L17,15.1L16.9,15c-0.1-0.1-0.1-0.1-0.2-0.2l-0.1-0.1c-0.1-0.1-0.1-0.1-0.2-0.2l-0.1-0.1l-0.9-0.9l-0.1-0.1c0,0,0-0.1-0.1-0.1
			L15,13.1c-0.1,0-0.1-0.1-0.2-0.1l-0.1-0.1l-0.6-0.6C14,12.2,14,12.1,13.9,12c-0.1,0-0.1,0-0.2-0.1c-1.6-1.6-3.3-3.3-4.9-4.9
			c0.1,0,0-0.1,0-0.3c-0.1-0.5-0.2-1-0.3-1.5c0-0.1-0.1-0.2-0.2-0.3C6.7,3.8,5.1,2.8,3.5,1.7c-0.1-0.1-0.2-0.1-0.3,0
			C2.6,2.4,2,3,1.4,3.6c-0.1,0.1-0.1,0.2,0,0.3c1.1,1.6,2.1,3.2,3.2,4.8c0.1,0.1,0.2,0.2,0.3,0.2c0.5,0.1,1,0.2,1.5,0.3
			c0.1,0,0.3,0.1,0.4,0.2c1.6,1.6,3.2,3.2,4.8,4.9c0.1,0.1,0.2,0.2,0.2,0.2s0,0,0.1,0.1l0,0 M12.6,13.8C10.8,12,9,10.2,7.2,8.4
			C7.1,8.3,7,8.2,6.8,8.2C6.4,8.1,5.9,8,5.4,7.9c-0.1,0-0.2-0.1-0.3-0.2C4.3,6.5,3.5,5.3,2.7,4c-0.1-0.1-0.1-0.2,0-0.3
			c0.2-0.2,0.4-0.4,0.6-0.6C3.5,3,3.5,3,3.6,3c1.2,0.8,2.5,1.7,3.7,2.5c0.1,0.1,0.1,0.2,0.2,0.3c0.1,0.4,0.2,0.9,0.3,1.4
			c0,0.2,0.1,0.3,0.2,0.4c3.6,3.6,7.2,7.2,10.7,10.7c0.1,0.1,0.1,0.1,0.2,0.2c0,0.1-0.7,0.8-0.7,0.7c-0.1,0-0.1-0.1-0.2-0.1
			C16.2,17.4,14.4,15.6,12.6,13.8 M28.3,28.2c-0.2,0.2-0.4,0.4-0.6,0.6c-0.5,0.5-1.1,0.5-1.7,0c-1.8-1.8-3.7-3.7-5.5-5.5
			c-0.8-0.8-0.5-0.6-1.5-0.6c-0.3,0-0.6,0-1,0c-0.2,0-0.2,0-0.3-0.2c0-0.3-0.1-0.6-0.2-0.8c0-0.1,0-0.2,0.1-0.3
			c1.1-1.1,2.1-2.1,3.2-3.2c0.1-0.1,0.1-0.1,0.2-0.1c0.3,0.1,0.6,0.1,0.9,0.2c0.1,0,0.2,0.1,0.2,0.2c0,0.3,0,0.6,0,0.8
			c-0.2,0.8,0.2,1.3,0.7,1.8c1.8,1.8,3.6,3.6,5.4,5.4C28.9,27,28.9,27.6,28.3,28.2"/>
		<path class="st2" d="M4.8,24.5c-0.2,0.2-0.2,0.3,0,0.4c0.1,0.1,0.3,0.2,0.4,0.4c0.1,0.1,0.2,0.1,0.3,0c0.9-0.9,1.9-1.9,2.8-2.8
			c1.6-1.6,3.3-3.3,4.9-4.9c-0.2-0.2-0.3-0.3-0.5-0.5c-0.1-0.1-0.2-0.2-0.2-0.3C9.9,19.3,7.4,21.9,4.8,24.5"/>
		<path class="st2" d="M4.5,26.2l-0.1,0.1c-0.2,0.2-0.4,0.3-0.5,0.5c-0.1,0.1-0.1,0.1-0.2,0c-0.2-0.2-0.3-0.4-0.5-0.5
			c-0.1-0.1-0.1-0.1,0-0.2c0.2-0.2,0.4-0.4,0.5-0.5s0.1-0.1,0.2,0C4.1,25.7,4.3,25.9,4.5,26.2C4.5,26.1,4.5,26.1,4.5,26.2"/>
		<path d="M27.6,27.3c0,0.1-0.7,0.7-0.7,0.7c-0.1,0-0.1-0.1-0.2-0.2c-1.5-1.5-2.9-2.9-4.4-4.4c-0.6-0.6-1.1-1.2-1.7-1.7
			c-0.1-0.1-0.1-0.2,0-0.3s0.3-0.3,0.4-0.4s0.2-0.1,0.3,0c0.7,0.8,1.5,1.5,2.2,2.2c1.3,1.3,2.6,2.6,3.8,3.9
			C27.5,27.2,27.6,27.3,27.6,27.3"/>
	</g>
</g>
<g id="Layer_9" class="st0">
	<g class="st1">
		<path d="M27.2,5c0-0.4-0.2-0.6-0.6-0.6c-6.5,0-12.9,0-19.4,0C6.8,4.3,6.6,4.5,6.6,5c0,4.9,0,9.8,0,14.8c0,0.3,0.1,0.4,0.2,0.5
			c4.7,0,9.3,0.1,14,0.1c0.3,0,0.5,0,0.8,0c0.2,0,0.4,0,0.6,0l0,0c0,0-0.1,0-0.1-0.1c-1.1-0.7-1.9-1.8-2.2-3.1
			c0-0.2-0.1-0.2-0.3-0.2c-3.9,0-7.8,0-11.6,0c-0.2,0-0.3,0-0.3-0.3c0-3.7,0-7.4,0-11c0-0.2,0.1-0.3,0.3-0.3c6,0,12,0,17.9,0
			c0.3,0,0.3,0,0.3,0.3c0,2,0,3.9,0,5.9c0,0.1,0,0.2,0.2,0.3c0.3,0.1,0.5,0.2,0.8,0.4c0,0,0.1,0.1,0.2,0v-0.2
			C27.2,9.7,27.2,7.3,27.2,5 M16.9,18.1c0.3,0,0.6,0.3,0.7,0.6c0,0.4-0.3,0.7-0.6,0.7c-0.4,0-0.7-0.3-0.7-0.6
			C16.2,18.4,16.5,18.1,16.9,18.1"/>
		<path d="M28.6,16.1c0,0.9-0.2,1.6-0.6,2.2c-0.1,0.1-0.1,0.2,0,0.3c1.1,1.1,2.2,2.2,3.3,3.3c0.3,0.3,0.4,0.9,0.2,1.3
			c-0.3,0.6-1.1,0.7-1.6,0.2c-0.6-0.6-1.2-1.2-1.8-1.8c-0.5-0.5-1.1-1.1-1.6-1.6c-0.1-0.1-0.2,0-0.2,0c-1,0.5-2,0.5-3,0.2
			c-1.8-0.6-2.9-2.3-2.8-4.1c0.1-1.9,1.5-3.5,3.4-3.8C26.4,11.8,28.6,13.7,28.6,16.1 M21.6,16.2c0,1.6,1.3,3,2.9,3s3-1.3,3-2.9
			s-1.3-3-2.9-3C22.9,13.3,21.6,14.6,21.6,16.2"/>
		<path class="st2" d="M11.9,11.5c0,1.2,0,2.5,0,3.7c0,0.3,0,0.3-0.3,0.3c-0.4,0-0.7,0-1.1,0c-0.2,0-0.2-0.1-0.2-0.2
			c0-2.5,0-5.1,0-7.6c0-0.2,0.1-0.2,0.2-0.2c0.4,0,0.7,0,1.1,0c0.3,0,0.3,0,0.3,0.3C11.9,8.9,11.9,10.2,11.9,11.5"/>
		<path class="st2" d="M17.9,11.5c0-1.3,0-2.5,0-3.8c0-0.3,0-0.3,0.3-0.3s0.7,0,1,0c0.2,0,0.3,0.1,0.3,0.3c0,0.7,0,1.3,0,2
			c0,1.8,0,3.7,0,5.5c0,0.3,0,0.3-0.3,0.3s-0.6,0-0.9,0c-0.2,0-0.3-0.1-0.3-0.3C17.9,14,17.9,12.7,17.9,11.5"/>
		<path class="st2" d="M12.8,11.5c0-1.3,0-2.5,0-3.8c0-0.3,0-0.3,0.3-0.3c0.2,0,0.5,0,0.7,0S14,7.5,14,7.6c0,2.5,0,5.1,0,7.6
			c0,0.2-0.1,0.2-0.2,0.2c-0.3,0-0.5,0-0.8,0c-0.2,0-0.3-0.1-0.3-0.3C12.8,14,12.8,12.7,12.8,11.5"/>
		<path class="st2" d="M15.7,11.4c0-1.3,0-2.5,0-3.8c0-0.3,0-0.3,0.3-0.3c0.2,0,0.4,0,0.6,0s0.3,0.1,0.2,0.3c0,1,0,2.1,0,3.1
			c0,1.5,0,3,0,4.4c0,0.3,0,0.3-0.3,0.3c-0.2,0-0.4,0-0.5,0c-0.2,0-0.2-0.1-0.2-0.2C15.7,14,15.7,12.7,15.7,11.4"/>
		<path class="st2" d="M15,11.4c0,1.3,0,2.5,0,3.8c0,0.1,0,0.2-0.1,0.2c-0.2,0-0.3,0.1-0.5,0c-0.1,0,0-0.1,0-0.2c0-1.2,0-2.5,0-3.7
			c0-1.3,0-2.5,0-3.8c0-0.1,0-0.2,0.1-0.3c0.2,0,0.3-0.1,0.5,0c0.1,0,0,0.1,0,0.2C15,8.9,15,10.2,15,11.4"/>
		<path class="st2" d="M22.1,12.1v-0.6c0-1.3,0-2.5,0-3.8c0-0.2,0.1-0.3,0.3-0.3s0.3,0,0.5,0s0.3,0.1,0.3,0.3c0,1,0,1.9,0,2.9
			c0,0.3,0,0.7,0,1c0,0.1,0,0.2-0.2,0.2C22.7,11.8,22.4,12,22.1,12.1"/>
		<path class="st2" d="M20.2,10.9c0,1.1,0,2.1,0,3.2c0,0.1,0,0.2-0.1,0.4c-0.1,0.3-0.2,0.6-0.3,0.9c0,0.1,0,0.1-0.1,0.1
			s-0.1-0.1-0.1-0.2v-0.1c0-2.5,0-5,0-7.5c0-0.3,0-0.3,0.3-0.3c0.2,0,0.2,0.1,0.2,0.2C20.2,8.7,20.2,9.8,20.2,10.9"/>
		<path class="st2" d="M21.2,12.8c0-0.1,0-0.1,0-0.2c0-1.6,0-3.3,0-4.9c0-0.3,0.2-0.4,0.4-0.3c0.1,0,0.1,0.1,0.1,0.2
			c0,0.8,0,1.6,0,2.4c0,0.7,0,1.4,0,2.1c0,0.2,0,0.3-0.2,0.4C21.4,12.6,21.3,12.7,21.2,12.8"/>
		<rect x="10.2" y="21.4" width="11.2" height="1.7"/>
		<path d="M5,6.2C5,6.1,5,6.1,5,6.2c-0.1,0-0.1,0-0.2,0S4.6,6.3,4.5,6.3L4.4,6.4c-0.1,0-0.2,0.1-0.2,0c-0.1,0-0.1,0-0.2-0.1
			c0,0-0.1,0-0.1-0.1V6.1C4,6,4,5.9,4,5.9c0-0.1,0-0.2-0.1-0.3c0-0.1-0.1-0.1-0.2-0.2c-0.1,0-0.1-0.1-0.2-0.1S3.4,5.2,3.3,5.2
			s-0.1,0-0.2,0H3c0,0-0.1,0-0.1,0.1L2.8,5.4c0,0.1,0,0.1,0,0.2s0,0.1,0.1,0.2c0,0,0,0,0.1,0c0-0.1,0.1-0.1,0.2-0.1
			c0-0.1,0.1-0.1,0.1-0.1s0.1-0.1,0.2-0.1s0.1,0,0.2,0l0.1,0.1v0.1v0.1c0,0.1,0,0.2,0,0.4c0,0,0,0,0,0.1c0,0,0,0,0.1,0.1
			c0.1,0,0.2,0,0.3,0.1c0.1,0.1,0.2,0.1,0.2,0.1c0.1,0,0.2,0,0.3,0c0.1,0,0.2-0.1,0.3-0.2C5,6.3,5.1,6.3,5,6.2
			C5.1,6.2,5.1,6.2,5,6.2"/>
		<path d="M5.4,10.5l-0.1-0.1c0,0-0.1,0.1-0.2,0.1c-0.1,0.1-0.3,0.1-0.5,0.1c-0.1,0.1-0.1,0.1-0.2,0.1c-0.1,0.1-0.3,0.1-0.4,0.1
			s-0.3,0-0.3-0.1c-0.1,0-0.1-0.1-0.1-0.1s0-0.1,0-0.3c0-0.1,0-0.3,0-0.4c0-0.2-0.1-0.3-0.2-0.5c-0.1,0-0.2-0.1-0.3-0.2S2.9,9,2.8,9
			C2.7,8.9,2.6,8.9,2.5,8.9s-0.2,0-0.3,0C2.1,8.9,2.1,8.9,2,9C1.9,8.9,1.8,9,1.7,9C1.6,9.1,1.6,9.1,1.5,9.2S1.4,9.4,1.4,9.5
			s0.1,0.2,0.2,0.3c0,0,0.1,0,0.1,0.1c0,0,0,0,0.1-0.1L2,9.6c0.1-0.1,0.2-0.1,0.3-0.1l0,0c0,0,0,0,0.1-0.1s0.2-0.1,0.3-0.1
			s0.2,0,0.4,0c0.1,0.1,0.1,0.2,0.1,0.2c0,0.1,0.1,0.2,0.1,0.2c0,0.1,0,0.1,0,0.2c-0.1,0.2,0,0.4,0,0.6c0,0,0,0.1,0.1,0.1l0.1,0.1
			C3.6,10.8,3.8,10.9,4,11c0.2,0.1,0.3,0.2,0.4,0.2c0.2,0.1,0.4,0.1,0.6,0s0.4-0.2,0.5-0.3s0.1-0.2,0.1-0.3
			C5.5,10.7,5.4,10.6,5.4,10.5"/>
		<path d="M31.7,8.9c-0.1,0-0.1,0-0.2,0c0,0-0.1,0-0.1,0.1s0,0.1,0,0.2c0,0.2,0,0.3-0.1,0.5c0,0.1,0,0.2,0,0.2c0,0.1,0,0.3-0.1,0.4
			s-0.2,0.2-0.3,0.2s-0.1,0-0.2,0c0,0-0.1-0.1-0.2-0.1c-0.1-0.1-0.2-0.1-0.3-0.2c-0.2-0.1-0.3-0.1-0.5-0.1s-0.3,0-0.5,0.1
			c-0.1,0-0.2,0.1-0.3,0.2s-0.2,0.1-0.3,0.2s-0.1,0.2-0.2,0.2c0,0.1,0,0.1-0.1,0.2c0,0.1,0,0.2,0,0.3s0,0.2,0.1,0.2
			c0.1,0.1,0.1,0.2,0.2,0.3s0.2,0.1,0.3,0s0.1-0.3,0.1-0.6c0-0.1,0-0.2,0.1-0.2c0-0.1,0-0.2,0-0.3s0.1-0.2,0.2-0.3
			c0.1,0,0.2,0,0.3,0s0.2,0,0.2,0.1c0.1,0,0.1,0.1,0.2,0.1c0.1,0.1,0.3,0.2,0.6,0.3h0.1c0.1,0,0.1,0,0.2,0c0.2-0.1,0.3-0.2,0.5-0.3
			s0.3-0.2,0.4-0.3S32,10,32.1,9.8s0-0.4-0.1-0.6S31.8,8.9,31.7,8.9"/>
		<path d="M31.1,5.3C31,5.3,31,5.3,31.1,5.3C31,5.3,31,5.4,31,5.4c0,0.1-0.1,0.2-0.2,0.2c0,0.1,0,0.1,0,0.1c0,0.1-0.1,0.2-0.2,0.2
			S30.5,6,30.4,6h-0.1l-0.1-0.1c0-0.1-0.1-0.1-0.2-0.2s-0.2-0.1-0.3-0.2c-0.1,0-0.2-0.1-0.3-0.1s-0.2,0-0.2,0c-0.1,0-0.1,0-0.2,0.1
			c-0.1,0-0.1,0.1-0.2,0.1l-0.1,0.1c0,0-0.1,0.1-0.1,0.2s0,0.1,0,0.2s0,0.2,0.1,0.2c0,0.1,0.1,0.1,0.2,0.1c0,0,0.1,0,0.2,0
			s0.1,0,0.2-0.1c0,0,0,0,0-0.1l0,0l0,0l0,0l0,0l0,0l0,0l0,0c0,0,0-0.1,0-0.2s0-0.2,0-0.2c0-0.1,0-0.1,0.1-0.2c0,0,0.1-0.1,0.2-0.1
			s0.1,0,0.2,0.1l0.1,0.1L30,5.8c0,0.1,0.1,0.2,0.3,0.3c0,0,0,0,0.1,0h0.1c0.1,0,0.2,0,0.4,0c0.1,0,0.2,0,0.3-0.1
			c0.1,0,0.2-0.1,0.3-0.2s0.1-0.2,0.1-0.4c0-0.1,0-0.1,0-0.2C31.2,5.3,31.1,5.3,31.1,5.3"/>
	</g>
</g>
<g id="Layer_10" class="st0">
	<g class="st1">
		<path d="M25.8,19.5c-0.3,0-0.6,0-0.9,0c-0.9,0.1-1.4-0.2-1.8-1.1c-0.3-0.7-0.6-0.7-1.1-0.1c-3.7,4.5-9.9,4.5-13.6,0
			c-0.6-0.7-0.9-0.7-1.2,0.1c-0.3,0.8-0.8,1.1-1.7,1c-0.6-0.1-1.3-0.1-1.9,0c-0.9,0.1-1.5-0.3-2-1.1c-2-3.2-2-7.8,0.1-10.9
			c0.4-0.6,0.9-1,1.6-0.9c0.5,0.1,0.9,0.1,1.4,0C6.1,6.6,7,6.8,7.6,8c0.3,0.7,0.6,0.2,0.8-0.1c3-3.8,8.1-4.5,11.9-1.7
			C21,6.7,21.6,7.3,22.1,8c0.3,0.4,0.5,0.4,0.7,0c0.5-1.3,1.5-1.4,2.7-1.3c0.2,0,0.4,0,0.6,0c1.6-0.3,2.4,0.5,3,1.9
			c1.5,3.3,1.4,6.5-0.4,9.7c-0.5,0.9-1.1,1.3-2.1,1.2C26.4,19.4,26.1,19.5,25.8,19.5 M15.3,20.4c4.1,0,7.3-3.3,7.3-7.4
			c0-4-3.3-7.3-7.4-7.3S7.9,9,7.9,13.1S11.2,20.4,15.3,20.4 M24.2,8.4c1.7-0.4,2.2,0.7,2.6,1.8c0.8,2.2,0.8,4.3-0.3,6.4
			c-0.4,0.8-0.9,1.5-1.9,1.3c-0.1,0-0.2,0-0.2,0.3c0.7,0.2,1.4,0,2.2,0.1c0.6,0.1,1-0.2,1.2-0.7c1.4-2.5,1.6-5.1,0.6-7.7
			C27.7,8,27.6,8,25.6,8c-0.3,0-0.6,0-0.9,0C24.5,7.9,24.3,8,24.2,8.4 M6,18.2c0-0.1,0-0.1,0-0.2c-1.7-0.4-1.8-0.5-2.4-1.9
			C2.8,14,2.8,12,3.7,10c0.4-1,1-1.9,2.3-1.7c0,0,0.1-0.1,0.2-0.1C6,7.9,5.7,7.9,5.4,7.9c-0.6,0-1.2,0-1.7,0s-0.8,0.2-1,0.6
			c-1.7,3.1-1.7,6.2,0,9.2c0.1,0.2,0.2,0.5,0.4,0.5C4.1,18.2,5.1,18.2,6,18.2 M4.3,13.4c0,0.5,0.1,1.1,0.3,1.8
			c0.5,1.5,0.6,1.6,2.2,1.5c0.5,0,0.6-0.1,0.4-0.6c-0.6-1.7-0.7-3.4-0.3-5.1c0.4-1.3,0.3-1.3-1-1.3c-0.5,0-0.7,0.2-0.9,0.6
			C4.6,11.1,4.3,12.1,4.3,13.4 M23.1,16.7c0.6,0,1,0,1.5,0c0.4,0,0.6-0.1,0.8-0.5c1-2,1-4.1,0-6.1c-0.1-0.3-0.3-0.5-0.6-0.4
			c-0.5,0-1,0-1.6,0C24.1,12,24.1,14.3,23.1,16.7"/>
		<path class="st2" d="M15.3,19.1c-1.2,0-2.3-0.3-3.3-1c-0.5-0.3-0.6-0.7-0.2-1.2c0.7-0.7,1.4-1.4,2.1-2.1c0.8-0.7,1.8-0.7,2.6,0
			c0.7,0.7,1.4,1.4,2.1,2.1c0.4,0.4,0.4,0.8-0.1,1.2C17.6,18.8,16.5,19.1,15.3,19.1 M17.5,17.4c-0.6-0.6-1.1-1-1.6-1.5
			c-0.4-0.4-0.8-0.4-1.2-0.1c-0.5,0.5-1,1-1.7,1.5C14.6,18,15.9,18,17.5,17.4"/>
		<path class="st2" d="M21.3,13c0,1.1-0.3,2.2-0.8,3.2c-0.3,0.6-0.7,0.6-1.2,0.2c-0.7-0.7-1.4-1.3-2.1-2.1c-0.8-0.9-0.8-1.9,0-2.8
			c0.6-0.6,1.3-1.3,1.9-1.9c0.5-0.5,0.9-0.4,1.3,0.1C20.9,10.6,21.3,11.8,21.3,13 M19.5,10.8c-0.5,0.6-1,1.1-1.4,1.5
			c-0.3,0.4-0.4,0.7-0.1,1.1c0.5,0.5,1,1.1,1.5,1.7C20.2,13.6,20.2,12.3,19.5,10.8"/>
		<path class="st2" d="M9.2,13.1c0-1.2,0.3-2.2,0.9-3.2c0.4-0.6,0.7-0.7,1.2-0.2c0.6,0.6,1.3,1.2,1.9,1.9c0.8,0.8,0.8,2,0.1,2.8
			c-0.6,0.7-1.3,1.4-2,2.1c-0.4,0.4-0.8,0.4-1.2-0.2C9.6,15.5,9.2,14.2,9.2,13.1 M10.9,10.8c-0.7,1.5-0.7,2.8-0.1,4.3
			c0.6-0.6,1.1-1.1,1.6-1.7c0.3-0.4,0.3-0.8-0.1-1.1C11.9,11.9,11.5,11.4,10.9,10.8"/>
		<path class="st2" d="M15.2,7c1.1,0,2.2,0.3,3.2,0.9C19,8.2,19,8.6,18.6,9.1c-0.7,0.7-1.3,1.4-2,2c-0.8,0.7-1.9,0.7-2.7-0.1
			c-0.6-0.6-1.2-1.3-1.9-1.9c-0.5-0.5-0.4-0.9,0.2-1.3C13.1,7.3,14.1,7,15.2,7 M15.3,8.2c-0.6,0.1-1.5,0-1.7,0.5
			c-0.2,0.4,0.7,0.8,1,1.2c0.1,0.1,0.2,0.2,0.4,0.3c0.2,0.2,0.5,0.2,0.7,0c0.6-0.5,1.5-1,1.4-1.6C17,8.2,15.9,8.3,15.3,8.2"/>
	</g>
</g>
<g id="Final_icons_-_Common_00000177465914938475831940000008305520913530454407_">
	<path class="st3" d="M0.6,28.6l9.5-9.5C6.6,13.9,8,6.9,13.2,3.5s12.2-2.1,15.6,3.1c3,4.5,2.4,10.4-1.4,14.2c-2.1,2.1-5,3.3-7.9,3.3
		c-2.3,0-4.5-0.7-6.4-2l-9.5,9.5L0.6,28.6z M25.7,19.1c3.4-3.5,3.4-9.2-0.2-12.6C23.9,4.9,21.7,4,19.4,4c-2.3,0-4.6,0.9-6.2,2.6
		c-3.4,3.5-3.4,9.1,0.2,12.6C16.8,22.5,22.3,22.5,25.7,19.1z"/>
</g>
<g>
	<path class="st4" d="M16.3,12.9c-0.2,0.4-0.4,0.7-0.5,1.1c-0.1,0.2-0.3,0.4-0.6,0.4c-0.3,0-0.5-0.2-0.6-0.4c-0.2-0.3-0.3-0.6-0.5-1
		c-0.2,0.4-0.6,0.4-1,0.4c-0.4,0-0.7,0-1.1,0c-0.4,0-0.6-0.2-0.6-0.6c0-0.3,0.2-0.5,0.6-0.5c0.3,0,0.6,0,0.9,0
		c0.2,0,0.3-0.1,0.4-0.3c0.1-0.2,0.2-0.4,0.3-0.5c0.2-0.4,0.8-0.4,1,0c0.2,0.4,0.4,0.8,0.6,1.2c0.2-0.4,0.4-0.7,0.5-1.1
		c0.1-0.3,0.3-0.4,0.6-0.4c0.3,0,0.5,0.2,0.6,0.4c0.1,0.2,0.2,0.4,0.3,0.6c0.1-0.1,0.1-0.3,0.2-0.4c0.4-1.5,0.8-3,1.1-4.5
		C18.5,7,18.7,6.7,19,6.7c0.3,0,0.5,0.2,0.6,0.6c0.4,2.7,0.8,5.3,1.2,8c0.1,0,0.1-0.1,0.1-0.2c0.3-1.1,0.6-2.2,0.8-3.3
		c0-0.1,0-0.2,0.1-0.2c0.1-0.2,0.2-0.4,0.5-0.4c0.3,0,0.4,0.1,0.6,0.3c0.2,0.4,0.4,0.7,0.6,1.2c0.2-0.4,0.4-0.8,0.6-1.1
		c0.1-0.2,0.3-0.4,0.5-0.4c0.3,0,0.5,0.1,0.5,0.4c0.2,0.7,0.6,0.8,1.2,0.7c0.2,0,0.3,0,0.5,0c0.3,0,0.5,0.2,0.5,0.5
		c0,0.3-0.1,0.5-0.5,0.6c-0.6,0-1.2,0-1.8,0c-0.2,0-0.4-0.2-0.5-0.4c-0.2,0.4-0.4,0.7-0.5,1.1c-0.1,0.2-0.3,0.4-0.6,0.4
		c-0.3,0-0.4-0.2-0.5-0.4c-0.1-0.2-0.2-0.4-0.3-0.7c-0.1,0.1-0.1,0.3-0.2,0.4c-0.4,1.5-0.8,3-1.1,4.5c-0.1,0.5-0.5,0.7-0.9,0.5
		c-0.2-0.1-0.2-0.3-0.3-0.5c-0.2-1.5-0.5-3-0.7-4.5c-0.2-1.1-0.3-2.3-0.5-3.4c0,0,0-0.1-0.1-0.1c0,0.2-0.1,0.3-0.1,0.4
		c-0.3,1.1-0.5,2.1-0.8,3.2c0,0.1,0,0.2-0.1,0.2c-0.1,0.2-0.2,0.4-0.5,0.4c-0.3,0-0.5-0.1-0.6-0.3C16.6,13.7,16.5,13.4,16.3,12.9z"
		/>
</g>
</svg>
