<?xml version="1.0" encoding="utf-8"?>
<!-- Generator: Adobe Illustrator 25.0.1, SVG Export Plug-In . SVG Version: 6.00 Build 0)  -->
<svg version="1.1" id="Layer_1" xmlns="http://www.w3.org/2000/svg" xmlns:xlink="http://www.w3.org/1999/xlink" x="0px" y="0px"
	 viewBox="0 0 60 60" style="enable-background:new 0 0 60 60;" xml:space="preserve">
<style type="text/css">
	.st0{display:none;}
	.st1{display:inline;}
	.st2{fill:#D90000;}
	.st3{fill:#D90000;stroke:#D90000;stroke-width:0.25;stroke-miterlimit:10;}
	.st4{fill:#606060;}
	.st5{fill:#FF000F;}
</style>
<g class="st0">
	<g class="st1">
		<path d="M36.5,31.2c-0.1,2.4,1,3.9,2.8,4.8c2,1,4,0.6,5.7-0.7c1.5-1.2,2.2-2.9,1.7-4.9c-0.2-0.8-0.7-1.5-1.1-2.2
			c-0.2-0.4-0.3-0.6,0.2-0.7c2.1-0.5,4.3-1,6.4-1.6c0.5-0.1,0.6,0,0.7,0.5c0.4,1.7,0.9,3.3,1.2,5c0.4,2-0.8,3.1-2.8,2.4
			c-1.2-0.4-3.4,0.9-3.7,2.2c-0.4,1.5,0.2,3.2,1.4,4s2.5,0.7,3.9-0.4c1.7-1.3,3-0.8,3.5,1.3s0.9,4.1,1.5,6.2c0.2,0.7,0,0.9-0.7,1
			c-2.2,0.5-4.3,1-6.5,1.6c-1.9,0.5-2.3,1.9-1.2,3.4c0.5,0.6,0.9,1.2,0.9,2.1c0,1.8-1.1,3.1-3,3.2c-1.7,0.2-3.1-0.9-3.4-2.6
			c-0.1-0.5,0.1-0.9,0.2-1.3c0.3-2.1-0.8-3.1-2.9-2.6c-1.5,0.4-3,0.7-4.5,1.1c-0.7,0.2-0.9,0.1-1.1-0.7c-0.5-2.1-1-4.2-1.5-6.3
			s-1.9-2.6-3.6-1.3c-2.3,1.7-4.6,0.8-5.2-2c-0.4-2,1.3-3.8,3.3-3.5c0.2,0,0.4,0.1,0.6,0.1c2.1,0.3,3.1-0.8,2.6-2.8
			c-0.4-1.5-0.7-3.1-1.2-4.6c-0.2-0.8,0-1.1,0.8-1.2c0.9-0.1,1.9-0.3,2.8-0.7c0.3-0.1,0.6-0.2,0.9-0.2c0.6,0,1.3-0.1,1.1,0.9
			C36.4,31.1,36.5,31.3,36.5,31.2z"/>
		<path d="M30.1,37.5c-3-0.5-5.3,0.3-6.4,3.3c-0.7,2,0,4.5,1.7,5.8c2.3,1.7,4.6,1.3,6.8-0.5c0.6,2.4,1.2,4.7,1.7,6.9
			c0.1,0.5-0.1,0.7-0.5,0.8c-1.7,0.4-3.3,0.8-5,1.2c-1.8,0.4-2.7-0.6-2.4-2.5c0.3-1.8-0.3-3.1-1.6-3.8c-1.4-0.7-3.1-0.3-4.2,0.9
			c-0.9,1-1,2.6-0.2,3.8c0.2,0.3,0.5,0.6,0.7,0.9c0.7,1.2,0.2,2.4-1,2.8c-2.3,0.6-4.7,1.1-7,1.7C12,59,12,58.6,11.9,58.1
			c-0.5-2.1-1-4.1-1.5-6.2c-0.6-2.3-1.9-2.8-3.8-1.3C5,51.9,3,51.7,2,50.2s-0.6-3.7,0.9-4.6C3.5,45.2,4.2,45,5,45.2
			c0.4,0.1,0.9,0.1,1.3,0.1c1.2,0,2-0.8,1.8-2.1c-0.2-1.5-0.6-2.9-0.9-4.3C6.7,37,6.7,37,8.7,36.5c1.6-0.4,3.3-0.8,4.9-1.1
			c2.8-0.6,2.7-2.5,1.4-4.2c-1-1.2-0.6-2.7,0-3.6c0.8-1.2,2.6-1.6,4-1c1.5,0.7,2,1.9,1.7,3.6c-0.4,2.4,0.8,3.4,3.1,2.7
			c1.5-0.5,3-0.8,4.5-1.1c0.3-0.1,0.6-0.1,0.7,0.3C29.3,33.8,29.7,35.6,30.1,37.5z"/>
		<path d="M17.6,24.4c-2.7,0-4.8,1.7-5.3,4.3c-0.3,1.5,0.4,2.7,1.2,3.8c0.4,0.6,0.3,0.8-0.3,0.9c-2.1,0.4-4.2,1-6.3,1.5
			c-0.4,0.1-0.6,0-0.7-0.4c-0.3-1.8-0.7-3.6-1.3-5.4c-0.4-1.2,0.6-2.2,1.9-2.2c0.4,0,0.7,0.1,1.1,0.1c1.5,0.2,2.9-0.5,3.5-1.8
			c0.7-1.4,0.2-3.1-1-4.2c-1.1-0.9-2.6-0.9-3.8,0c-0.4,0.2-0.6,0.4-0.8,0.5c-1.5,1-2.7,0.5-3.1-1.1c-0.6-2.1-1-4.3-1.6-6.5
			c-0.2-0.7,0-1,0.7-1.1c2-0.4,4.1-0.9,6.1-1.5c2.4-0.6,2.8-1.9,1.4-3.8c-1-1.3-1-2.7-0.2-3.8s2.5-1.6,3.9-1.1
			c1.3,0.5,2.1,1.9,1.8,3.3c-0.1,0.5-0.2,1.1-0.1,1.6c0.1,1.2,1.2,1.8,2.7,1.5s3.1-0.7,4.6-1.1c0.8-0.3,1.2,0,1.3,0.8
			c0.4,1.8,0.8,3.6,1.3,5.4c0.1,0.5,0.2,0.9,0.4,1.4c0.5,1.3,1.7,1.7,2.9,1c0.4-0.2,0.7-0.5,1.1-0.8c1.1-0.7,2.4-0.6,3.4,0.1
			c1.1,0.8,1.5,2.3,1.2,3.6c-0.4,1.3-1.4,2.1-2.7,2.1c-0.5,0-0.9-0.1-1.4-0.2c-1.6-0.3-2.8,0.9-2.4,2.5c0.4,1.7,0.9,3.4,1.3,5.1
			c0.1,0.4,0.4,0.9-0.3,0.9c-1.6,0.1-3.1,0.9-4.7,1.1c-0.8,0.1-0.7-0.2-0.6-0.7C23.1,27.1,20.8,24.4,17.6,24.4z"/>
		<path class="st2" d="M28.9,23.5c3.8,0.1,5.6-0.8,6.4-3.3c0.7-2.1,0-4.6-1.8-6c-1.9-1.5-4.1-1.3-6.7,0.5c-0.5-1.9-0.9-3.7-1.3-5.5
			c-0.5-2-0.5-2,1.5-2.5c1.1-0.3,2.2-0.5,3.3-0.8c2.1-0.5,3,0.4,2.6,2.5c-0.3,1.5,0.1,2.6,1.3,3.5c1.3,0.9,3.2,0.7,4.3-0.5
			c1.2-1.2,1.3-2.8,0.3-4.2c-0.2-0.2-0.4-0.4-0.5-0.7c-0.8-1.2-0.4-2.5,1-2.9C41.6,3,44,2.4,46.4,1.9c0.5-0.1,0.7,0.1,0.8,0.5
			c0.5,2,1,4.1,1.5,6.1c0.6,2.5,1.9,3,4,1.5c1.2-0.9,2.8-0.9,3.8-0.1c1.1,0.9,1.5,2.8,0.9,4c-0.6,1.3-1.8,1.9-3.4,1.6
			c-2.3-0.4-3.4,0.7-2.8,3c0.4,1.5,0.7,3,1.1,4.5c0.1,0.5,0,0.8-0.6,0.9c-2.1,0.5-4.3,1-6.4,1.6c-2,0.5-2.6,1.7-1.4,3.4
			c0.8,1.2,0.6,2.4,0.7,3.6c0,0.9-1.9,2-3,1.9c-1.9-0.2-3.5-1.5-3-3.7c0.5-2.3-0.7-3.4-3-2.9c-1.4,0.4-2.8,0.7-4.3,1.1
			c-0.7,0.2-1.1,0.1-1.2-0.7c0-0.1-0.1-0.2-0.1-0.3C29.6,26.5,29.3,25,28.9,23.5z"/>
	</g>
</g>
<g class="st0">
	<g class="st1">
		<path d="M16.9,12.5c-0.4-1.9-0.7-3.5-1.1-5.1c-0.2-0.7,0-1.1,0.6-1.4c0.7-0.4,1.4-0.8,2.1-1.2c0.5-0.4,0.8-0.3,1.2,0.1
			C20.8,6,22,6.9,23.1,8c0.5,0.5,0.9,0.6,1.6,0.4c0.5-0.2,1-0.4,1.5-0.4c1.3,0,1.7-0.8,2-1.9c0.3-1.3,0.8-2.5,1.2-3.8
			c0.1-0.5,0.3-0.7,0.9-0.7c0.9,0,1.9,0,2.8,0c0.5,0,0.7,0.2,0.9,0.7c0.5,1.6,1,3.1,1.5,4.7c0.1,0.4,0.3,0.6,0.8,0.7
			c0.9,0.2,1.8,0.4,2.6,0.7c0.5,0.2,0.8,0.1,1.1-0.3c1.2-1.1,2.5-2.2,3.7-3.3c0.4-0.3,0.7-0.4,1.1-0.1c0.8,0.5,1.5,0.9,2.3,1.4
			c0.5,0.3,0.6,0.6,0.5,1.1c-0.4,1.6-0.7,3.1-1,4.7c-0.1,0.5-0.1,0.9,0.4,1.2c0.4,0.3,0.9,0.7,1.2,1.1c0.7,1.1,1.6,1.2,2.8,0.8
			s2.5-0.5,3.7-0.8c0.6-0.1,0.9,0,1.1,0.5c0.1,0.2,0.2,0.3,0.3,0.5c0.4,0.8,1.4,1.6,1.2,2.4c-0.1,0.8-1.1,1.4-1.7,2.1
			c-0.8,0.9-2,1.6-2.2,2.7c-0.2,1,0.5,2.2,0.8,3.3c0.1,0.5,0.4,0.5,0.7,0.7c1.5,0.5,3,1,4.5,1.4c0.6,0.2,0.9,0.5,0.8,1.2
			c-0.1,0.8,0,1.7,0,2.5c0,0.5-0.2,0.8-0.6,0.9c-1.6,0.5-3.1,1-4.7,1.5c-0.5,0.1-0.7,0.3-0.8,0.8s-0.1,1.1-0.4,1.6
			c-0.6,1.2-0.2,2.1,0.7,3s1.7,1.9,2.6,2.8c0.3,0.4,0.4,0.6,0.1,1.1c-0.5,0.8-0.9,1.5-1.3,2.3c-0.3,0.5-0.6,0.6-1.2,0.5
			c-1.5-0.3-2.9-0.6-4.4-1c-0.7-0.2-1.2,0-1.6,0.5c-0.3,0.4-0.7,0.9-1.1,1.2c-0.8,0.6-1,1.3-0.7,2.2c0.4,1.4,0.6,2.8,0.9,4.1
			c0.1,0.5,0,0.8-0.4,1s-0.7,0.4-1,0.6c-2,1.1-2,1.1-3.7-0.4c-0.1-0.1-0.2-0.2-0.3-0.2c-0.9-0.8-1.6-1.8-2.6-2.2s-2.1,0.6-3.3,0.7
			c-0.5,0.1-0.7,0.3-0.8,0.8c-0.5,1.6-1,3.1-1.5,4.7c-0.4,0.3-0.6,0.5-1.1,0.5c-0.9,0-1.7,0-2.6,0c-0.6,0-0.9-0.2-1-0.7
			c-0.5-1.6-1-3.1-1.5-4.6c-0.1-0.5-0.3-0.7-0.8-0.8s-1-0.1-1.4-0.3c-1.3-0.7-2.3-0.3-3.3,0.8c-0.8,0.9-1.7,1.6-2.6,2.4
			c-0.5,0.5-0.8,0.5-1.3,0.1c-0.7-0.5-1.4-0.9-2.2-1.3c-0.5-0.3-0.6-0.6-0.5-1.2c0.4-1.5,0.7-3,1-4.6c0.1-0.6,0-1-0.4-1.3
			s-0.9-0.7-1.2-1.1c-0.7-1-1.5-1.1-2.6-0.8c-1.2,0.3-2.4,0.5-3.6,0.8c-0.7,0.2-1.1,0.1-1.4-0.6c-0.3-0.6-0.6-1.2-1-1.7
			c-0.6-0.8-0.4-1.3,0.2-2c1-1,1.9-2.1,2.9-3.2c0.4-0.4,0.4-0.8,0.3-1.3c-0.3-0.8-0.5-1.6-0.7-2.4C9.2,34.2,9,34,8.5,33.9
			c-1.5-0.4-3-1-4.5-1.4c-0.7-0.2-1-0.5-0.9-1.3c0.1-0.7,0.1-1.4,0-2.2C3,28.3,3.3,27.9,4,27.7c1.5-0.4,3-1,4.5-1.4
			C9,26.2,9.2,26,9.3,25.5c0.1-0.6,0.2-1.2,0.4-1.7c0.5-1,0.3-1.8-0.6-2.6c-1-0.9-1.9-2-2.8-3c-0.3-0.5-0.3-0.7,0-1.1
			c0.5-0.8,0.9-1.5,1.4-2.3c0.3-0.5,0.6-0.6,1.1-0.5c1.5,0.4,3.1,0.7,4.6,1c0.5,0.1,0.9,0.1,1.3-0.4c0.6-0.7,1.2-1.2,1.8-1.9
			C16.7,12.8,16.9,12.6,16.9,12.5z M31.6,15.8c-7.9,0-14.3,6.3-14.3,14.3c0,7.9,6.3,14.3,14.2,14.3c8,0,14.3-6.3,14.4-14.3
			C45.9,22.1,39.5,15.8,31.6,15.8z"/>
		<path class="st2" d="M31.7,32.2c1.8,0,3.7,0,5.5,0c1.7,0,2.8,1.1,2.9,2.8c0,1-0.1,1.9,0,2.9c0.1,0.9-0.3,1.4-1,1.9
			c-4.5,3.4-10.9,3.3-15.2-0.3c-0.5-0.4-0.7-0.7-0.7-1.4c0.1-1,0-2.1,0-3.2c0-1.8,1.1-2.8,2.9-2.9C27.9,32.2,29.8,32.2,31.7,32.2z"
			/>
		<path class="st2" d="M31.6,31.3c-2.5,0-4.7-2.1-4.7-4.6c0-2.6,2-4.6,4.6-4.7c2.6,0,4.7,2,4.7,4.6C36.3,29.2,34.2,31.3,31.6,31.3z"
			/>
	</g>
</g>
<g id="Layer_3" class="st0">
	<g class="st1">
		<path d="M30,6.9c6.5,0,13,0,19.6,0c2.5,0,5.1,0,7.6,0c0.2,0,0.4,0,0.6,0C59.3,7,60,7.7,60,9.2C60,21.1,60,33,60,45
			c0,1-0.6,1.7-1.5,1.9C58.1,47,57.8,47,57.4,47c-7,0-14.1,0-21.1,0c-0.6,0-0.6,0-0.5,0.6c0.1,1.2,0.2,2.5,0.2,3.7
			c0.1,0.9,0.3,1.7,0.9,2.4c0.1,0.2,0.3,0.3,0.5,0.3c1.5,0,2.9,0,4.4,0c0.3,0,0.4,0.1,0.4,0.4c0,0.9,0,1.8,0,2.7
			c0,0.3-0.1,0.4-0.3,0.4c-6,0-11.9,0-17.9,0c-2,0-3.9,0-5.9,0c-0.3,0-0.4-0.1-0.4-0.4c0-0.9,0-1.8,0-2.7c0-0.3,0.1-0.3,0.3-0.3
			c1.5,0,3.1,0,4.6,0c0.3,0,0.5-0.1,0.6-0.3c0.5-0.6,0.8-1.3,0.8-2.1c0.1-1.4,0.2-2.8,0.3-4.2c0-0.3-0.1-0.4-0.4-0.4
			c-7.1,0-14.2,0-21.3,0c-0.3,0-0.6,0-0.9,0C0.6,47,0.1,46.4,0,45.3c0-0.2,0-0.4,0-0.7C0,32.9,0,21.2,0,9.5c0-0.1,0-0.2,0-0.3
			c0-1.4,0.7-2.1,2.1-2.1c1.8,0,3.5,0,5.3,0C14.9,6.9,22.5,6.9,30,6.9L30,6.9z M30,11L30,11c-8.8,0-17.6,0-26.4,0
			c-0.8,0-0.7-0.1-0.7,0.7c0,10.1,0,20.1,0,30.2c0,0.6,0,0.6,0.6,0.6c17.7,0,35.4,0,53.1,0c0.7,0,0.6,0.1,0.6-0.6
			c0-10.2,0-20.3,0-30.5c0-0.3-0.1-0.4-0.4-0.4C47.8,11,38.9,11,30,11z"/>
		<path d="M42.6,22.2c0,1.4,0,2.8,0,4.2c0,0.5,0.1,0.9,0.4,1.3c1.5,2.4,3,4.7,4.6,7.1c0.2,0.3,0.1,0.4-0.2,0.6
			c-3.1,1.7-7.3,1.3-10.2-1.1c-2.8-2.4-4-5.4-3.4-9.1c0.7-3.6,2.8-6,6.2-7.3c0.7-0.2,1.3-0.4,2-0.4c0.4,0,0.4,0.1,0.4,0.4
			C42.6,19.3,42.6,20.7,42.6,22.2L42.6,22.2z"/>
		<path d="M20,39.5c-3.4,0-6.7,0-10.1,0c-1,0-2,0-3,0c-0.3,0-0.4,0-0.4-0.3c0-1.1,0-2.1,0-3.2c0-0.3,0.1-0.3,0.4-0.3
			c4.3,0,8.6,0,12.9,0c4.4,0,8.8,0,13.2,0c0.4,0,0.5,0.1,0.5,0.5c0,1,0,1.9,0,2.9c0,0.4-0.1,0.5-0.5,0.5c-4,0-8,0-12.1,0
			C20.7,39.5,20.3,39.5,20,39.5L20,39.5z"/>
		<path d="M53.4,27.1c-0.1,2.8-1.2,5.5-3.7,7.6c-0.1,0.1-0.2,0.1-0.3,0.2c-0.2,0.2-0.3,0.1-0.4-0.1c-1.5-2.4-3.1-4.8-4.6-7.1
			c-0.1-0.2-0.1-0.3,0.1-0.4c2.4-1.8,4.8-3.6,7.2-5.4c0.2-0.2,0.3,0,0.4,0.1C53,23.5,53.4,25.1,53.4,27.1z"/>
		<path class="st2" d="M43.9,21.4c0-1.4,0-2.8,0-4.2c0-0.5,0-0.5,0.5-0.5c1.2,0.1,2.4,0.5,3.4,1.1c1.2,0.6,2.3,1.4,3.2,2.6
			c0.2,0.2,0.2,0.4-0.1,0.6c-2.2,1.7-4.5,3.4-6.7,5c-0.1,0.1-0.2,0.2-0.3,0.2c-0.1-0.1-0.1-0.2-0.1-0.4
			C43.9,24.3,43.9,22.8,43.9,21.4z"/>
		<path class="st2" d="M26.3,15.2c-0.4,0-0.9,0-1.3,0c-0.2,0-0.5,0-0.7,0c-0.3,0-0.5-0.2-0.5-0.6c0-0.3,0.2-0.5,0.5-0.6
			c0.1,0,0.1,0,0.2,0c1,0,2,0,3.1,0c0.5,0,0.7,0.2,0.7,0.7c0,1.1,0,2.2,0,3.3c0,0.4-0.2,0.6-0.6,0.6c-0.3,0-0.5-0.2-0.6-0.6
			c0-0.6,0-1.2,0-1.8c-0.2,0.1-0.3,0.2-0.4,0.3c-1.4,1.6-2.8,3.3-4.2,4.9c-0.1,0.1-0.2,0.2-0.3,0.3c-0.4,0.4-0.6,0.5-1.1,0.1
			c-1.4-1.1-2.7-2.2-4.1-3.3c-0.3-0.2-0.4-0.2-0.6,0c-1.7,1.6-3.4,3.2-5.1,4.9c-0.1,0.1-0.1,0.1-0.2,0.2c-0.4,0.3-0.6,0.4-0.9,0.1
			c-0.2-0.2-0.2-0.8,0.1-1c1.9-1.8,3.7-3.6,5.6-5.4c0.5-0.5,0.7-0.5,1.3,0c1.3,1.1,2.7,2.2,4,3.2c0.2,0.1,0.3,0.2,0.5,0
			c1.4-1.7,2.9-3.4,4.3-5.1C26.2,15.4,26.3,15.3,26.3,15.2z"/>
		<path d="M28.2,26.1c0,1.5,0,2.9,0,4.4c0,0.6-0.2,0.8-0.8,0.8c-0.6,0-1.2,0-1.9,0c-0.5,0-0.7-0.2-0.7-0.7c0-3,0-5.9,0-8.9
			c0-0.6,0.2-0.7,0.7-0.8c0.6,0,1.2,0,1.9,0c0.6,0,0.7,0.2,0.7,0.7C28.2,23.2,28.2,24.7,28.2,26.1L28.2,26.1z"/>
		<path d="M15.1,27c0-1.2,0-2.3,0-3.5c0-0.6,0.2-0.8,0.8-0.8c0.6,0,1.2,0,1.8,0s0.7,0.2,0.7,0.7c0,2.4,0,4.8,0,7.2
			c0,0.5-0.2,0.7-0.7,0.7c-0.7,0-1.3,0-2,0c-0.5,0-0.7-0.2-0.7-0.7C15.1,29.4,15.1,28.2,15.1,27L15.1,27z"/>
		<path d="M23.3,27.9c0,0.9,0,1.8,0,2.7c0,0.6-0.2,0.8-0.8,0.8c-0.6,0-1.2,0-1.9,0c-0.6,0-0.8-0.2-0.8-0.7c0-1.8,0-3.6,0-5.5
			c0-0.5,0.2-0.7,0.6-0.7c0.7,0,1.4,0,2.1,0c0.5,0,0.7,0.2,0.7,0.7C23.3,26.1,23.3,27,23.3,27.9L23.3,27.9z"/>
		<path d="M10.1,28.7c0-0.6,0-1.2,0-1.8c0-0.6,0.2-0.7,0.7-0.8c0.6,0,1.3,0,1.9,0c0.5,0,0.7,0.2,0.7,0.7c0,1.3,0,2.5,0,3.8
			c0,0.5-0.2,0.7-0.7,0.7c-0.7,0-1.3,0-2,0c-0.5,0-0.7-0.2-0.7-0.7C10.1,30,10.2,29.4,10.1,28.7C10.2,28.7,10.1,28.7,10.1,28.7z"/>
		<path class="st2" d="M26,39.5c-1.9,0-3.8,0-5.7,0c-0.6,0-1.1,0-1.7,0c-0.1,0-0.2,0-0.2-0.3c0-1.1,0-2.1,0-3.2c0-0.3,0-0.3,0.2-0.3
			c2.4,0,4.9,0,7.3,0c2.5,0,5,0,7.4,0c0.2,0,0.3,0.1,0.3,0.5c0,1,0,1.9,0,2.9c0,0.4,0,0.5-0.3,0.5c-2.3,0-4.6,0-6.8,0
			C26.4,39.5,26.2,39.5,26,39.5L26,39.5z"/>
	</g>
</g>
<g id="Layer_4" class="st0">
	<g class="st1">
		<path d="M36.6,32c-0.2,0-0.4,0-0.5,0c-8.7,0-17.5,0-26.2,0c-0.3,0-0.5,0-0.6,0.5c-0.4,1.8-1.7,3.1-3.6,3.5c-2.1,0.4-4-0.5-5-2.2
			c-1.1-1.9-0.7-4.5,1.2-5.9c1.5-1.2,3.2-1.3,4.9-0.5c1,0.4,1.7,1.1,2.1,2.1C9.1,29.9,9.3,30,9.6,30c4.4,0,8.8,0.1,13.2,0
			c4.5-0.1,8.9,0,13.4-0.1c0.4,0,0.5-0.1,0.3-0.5c-0.7-1.9-2.1-2.9-4.1-3.3c-0.2,0-0.4,0-0.6,0c-3.9,0-7.7,0-11.6,0
			c-0.4,0-0.7-0.1-0.9-0.5c-1.4-1.9-2.8-3.7-4.1-5.5c-0.1-0.1-0.2-0.2-0.4-0.2c-0.8,0-1.6,0-2.4,0c-0.3,0-0.4,0.2-0.5,0.4
			c-0.6,1.2-1.5,2-2.9,2.4c-2.5,0.8-5.2-0.7-5.8-3.2c-0.6-2.7,0.9-5.1,3.6-5.7c2.5-0.5,5,1.1,5.4,3.6c0,0.3,0.2,0.4,0.5,0.4
			c1,0,2,0,3,0c0.3,0,0.5,0.1,0.7,0.4c1.4,1.9,2.8,3.7,4.2,5.5c0.1,0.2,0.3,0.2,0.6,0.2c3.6,0,7.3,0,10.9,0c1.4,0,2.7,0.5,3.9,1.3
			c1.2,0.9,2,2,2.6,3.4c0.6,1.7,0.6,3.5-0.2,5.2c-0.9,2-2.4,3.3-4.5,4c-0.6,0.2-1.3,0.3-1.9,0.3c-3.5,0-7,0-10.4,0
			c-0.4,0-0.6,0.1-0.8,0.4c-1.4,2.1-2.8,4.2-4.2,6.2c-0.2,0.3-0.4,0.4-0.8,0.4c-1.1,0-2.1,0-3.2,0c-0.2,0-0.4,0.1-0.5,0.3
			c-0.6,1.5-2.3,2.7-4.1,2.7c-2.1,0-4-1.5-4.5-3.4c-0.8-2.7,1.3-5.5,3.9-5.8c1.5-0.2,2.7,0.3,3.8,1.2c0.7,0.6,1.2,1.4,1.3,2.3
			c0.1,0.3,0.2,0.5,0.5,0.5c0.6,0,1.2,0,1.8,0c0.3,0,0.4-0.1,0.6-0.3c1.4-2.1,2.9-4.3,4.3-6.4c0.2-0.3,0.4-0.3,0.7-0.3
			c3.9,0,7.7,0,11.6,0c1.8,0,3.2-0.9,4.2-2.4C36.3,33.1,36.6,32.6,36.6,32z M4.8,33.9c1.2,0.1,2.5-1,2.5-2.4S6.2,29,4.8,29
			s-2.5,1.1-2.5,2.5C2.3,32.8,3.4,33.9,4.8,33.9z M10.3,43.6c0.1-1.2-1-2.5-2.5-2.5c-1.3,0-2.5,1.1-2.5,2.5s1.1,2.5,2.5,2.5
			S10.3,45,10.3,43.6z M10.3,18.3c0.1-1.3-1-2.5-2.5-2.5c-1.6,0-2.4,1.4-2.5,2.4c-0.1,1.5,1.3,2.6,2.5,2.6
			C9.2,20.7,10.3,19.7,10.3,18.3z"/>
		<path d="M28.2,46.1c-1.5,0-3,0-4.6,0c-0.4,0-0.6,0.1-0.8,0.4c-0.7,0.8-1.4,1.6-2.1,2.4c-0.8,0.9-1.5,1.7-2.3,2.6
			c-0.2,0.2-0.3,0.4-0.2,0.7c1,2.8-1,5.7-3.7,6c-1.6,0.2-2.9-0.3-4-1.4c-1.7-1.7-1.6-4.8,0-6.4c1.5-1.6,4.4-1.9,6.1-0.5
			c0.1,0.1,0.2,0.1,0.3,0c1.1-1.3,2.3-2.7,3.4-4c0.5-0.6,1-1.1,1.5-1.7c0.1-0.1,0.2-0.2,0.4-0.2c0.9,0,1.8-0.1,2.7-0.1
			c2.3,0,4.6,0,6.8,0c1.6,0,3.1-0.3,4.6-0.9c1.7-0.7,3.2-1.7,4.5-3c1.9-2,3.2-4.3,3.7-7c0.6-3.4-0.2-6.3-2.2-9.1
			c-1.2-1.6-2.7-2.8-4.5-3.7c-1.4-0.7-2.8-1.2-4.3-1.3c-2.7-0.3-5.4-0.1-8.1-0.1c-1.5,0-1.5,0-2.3-1.2c-1.6-2.4-3.3-4.7-4.9-7.1
			c-0.1-0.2-0.2-0.3-0.5-0.2c-2.3,0.9-4.9,0-5.9-2.1c-1.4-2.8,0.2-6.1,3.3-6.7C17.5,1,20,2.7,20.5,5.1c0.2,1.2,0,2.3-0.6,3.3
			c-0.2,0.3-0.1,0.5,0,0.7c1.5,2.1,3,4.2,4.4,6.4c0.5,0.8,1.1,1.2,2.2,1.1c2-0.1,3.9-0.1,5.9,0c3.3,0.1,6.2,1.2,8.8,3.1
			c1.8,1.3,3.2,3,4.2,4.9c0.7,1.5,1.2,3,1.4,4.6c0.1,0.6,0.1,1.3,0.1,1.9c0,1.8-0.4,3.6-1.2,5.3c-0.9,2-2.1,3.8-3.8,5.3
			c-2.1,1.9-4.5,3.3-7.3,3.9c-1.7,0.4-3.4,0.2-5.1,0.3C29.1,46.2,28.6,46.1,28.2,46.1z M13.9,56.2c1.4,0,2.5-1.1,2.5-2.5
			c0-1.3-1.2-2.5-2.5-2.5c-1.4,0-2.5,1.2-2.5,2.5C11.4,55.1,12.5,56.2,13.9,56.2z M15.9,8.6c1.4,0.1,2.5-1,2.5-2.5
			c0-1.3-1.1-2.4-2.5-2.5c-1.1,0-2.5,0.8-2.6,2.5C13.4,7.7,14.7,8.6,15.9,8.6z"/>
		<path class="st2" d="M46.5,8.6c2,2.1,4,4.1,6,6.2c0.3,0.3,0.6,0.7,1,1.1c0.2,0.2,0.2,0.3,0,0.5c-0.9,1.2-1.8,2.3-2.7,3.5
			c-0.2,0.2-0.2,0.3-0.1,0.5c0.9,1.7,1.5,3.5,2,5.3c0.1,0.3,0.3,0.2,0.4,0.2c1.5,0,3,0,4.5,0c0.4,0,0.5,0.1,0.5,0.5
			c0,3.4,0,6.9,0,10.3c0,0.3-0.1,0.4-0.4,0.4c-1.5,0-3,0-4.6,0c-0.3,0-0.4,0.1-0.6,0.4c-0.4,1.3-0.9,2.6-1.7,3.8
			c-0.2,0.4-0.2,0.6,0.1,0.9c0.9,1,1.7,1.9,2.6,2.9c0.2,0.2,0.2,0.3,0,0.5c0,0,0,0-0.1,0.1c-2.2,2.2-4.4,4.5-6.6,6.7
			c-0.2,0.3-0.4,0.4-0.7,0.1c-1-0.8-2-1.6-2.9-2.4c-0.3-0.3-0.6-0.3-0.9-0.1c-1,0.6-2.2,1-3.3,1.4c-0.4,0.1-0.9,0.1-1.1,0.4
			c-0.2,0.3-0.1,0.8-0.1,1.3c0,1,0,2,0,3c0,0.3-0.1,0.4-0.4,0.4c-3.1,0-6.3,0-9.4,0c-0.3,0-0.4-0.1-0.4-0.4c0-1.4,0-2.9,0-4.3
			c0-0.3,0.1-0.4,0.4-0.4c0.5,0,0.9,0,1.4,0c0.3,0,0.4,0.1,0.4,0.4c0,0.7,0,1.5,0,2.2c0,0.3,0.1,0.4,0.4,0.4c1.7,0,3.4,0,5.1,0
			c0.3,0,0.4-0.1,0.4-0.4c0-1.1,0-2.3,0-3.4c0-0.3,0-0.4,0.3-0.4c1.8-0.4,3.6-0.9,5.2-1.8c0.5-0.3,1-0.6,1.5-0.9
			c0.2-0.1,0.3-0.1,0.5,0c0.9,0.7,1.8,1.5,2.7,2.2c0.5,0.4,0.5,0.4,1-0.1c1.1-1.1,2.2-2.2,3.3-3.3c0.7-0.7,0.7-0.7,0-1.5
			c-0.7-0.7-1.3-1.4-1.9-2.1c-0.2-0.2-0.2-0.4-0.1-0.7c1.2-2,2.2-4,2.8-6.3c0.1-0.3,0.2-0.4,0.5-0.4c1.4,0,2.8,0,4.1,0
			c0.4,0,0.5-0.1,0.5-0.5c0-2,0-4,0-6.1c0-0.4-0.1-0.5-0.5-0.5c-1.3,0-2.7,0-4,0c-0.3,0-0.5-0.1-0.5-0.4c-0.4-2.1-1.1-4.2-2.1-6.2
			c-0.2-0.4-0.4-0.8-0.7-1.2c-0.2-0.3-0.1-0.4,0-0.6c0.8-1,1.7-2.1,2.5-3.2c0.2-0.2,0.1-0.3,0-0.5c-1.4-1.4-2.7-2.8-4.1-4.2
			c-0.1-0.1-0.2-0.2-0.4,0c-0.9,0.9-1.9,1.7-2.8,2.6c-0.3,0.3-0.6,0.3-0.9,0.1c-0.7-0.5-1.5-0.9-2.2-1.3c-1.3-0.6-2.7-1.1-4.1-1.4
			c-0.4-0.1-0.5-0.2-0.5-0.6c0-1.4,0-2.7,0-4.1c0-0.3,0-0.5-0.4-0.5c-1.7,0-3.4,0-5.1,0c-0.3,0-0.4,0.1-0.4,0.4c0,1.4,0,2.8,0,4.2
			c0,0.3-0.1,0.4-0.4,0.4c-0.5,0-0.9,0-1.4,0c-0.2,0-0.3-0.1-0.3-0.3c0-2.2,0-4.3,0-6.5c0-0.3,0.1-0.3,0.4-0.3c3.2,0,6.3,0,9.5,0
			c0.3,0,0.4,0.1,0.4,0.4c0,1.5,0,3.1,0,4.6c0,0.4,0.1,0.5,0.5,0.6c1.5,0.4,2.9,1.1,4.3,1.8c0.1,0.1,0.2,0.1,0.3,0
			c0.7-0.7,1.4-1.3,2.1-1.9C45.5,9.5,45.9,9.1,46.5,8.6z"/>
	</g>
</g>
<g id="Layer_6" class="st0">
	<g class="st1">
		<g>
			<g>
				<path d="M29.6,7.5c8.4,0,16.8,0,25.2,0c2.7,0,4.4,1.7,4.4,4.4c0,13.2,0,26.5,0,39.7c0,2.6-1.7,4.3-4.4,4.3
					c-16.9,0-33.8,0-50.7,0c-2.6,0-4.3-1.8-4.3-4.3c0-13.2,0-26.4,0-39.6c0.1-2.8,1.8-4.5,4.6-4.5C12.8,7.5,21.2,7.5,29.6,7.5
					L29.6,7.5z M29.6,51.8c8.1,0,16.3,0,24.4,0c1,0,1.1-0.1,1.1-1c0-10.8,0-21.7,0-32.5c0-0.9-0.2-1.1-1.1-1.1
					c-16.2,0-32.4,0-48.6,0c-1.3,0-1.4,0.1-1.4,1.4c0,10.7,0,21.4,0,32c0,1.1,0.1,1.2,1.2,1.2C13.4,51.8,21.5,51.8,29.6,51.8z
					 M35.8,12.4c0-1.1-0.9-2.1-2-2.1s-2.1,1-2.1,2.1s1,2.1,2.1,2.1C34.9,14.4,35.8,13.5,35.8,12.4z M40,12.4c0,1.1,0.9,2.1,2.1,2
					c1.1,0,2.1-0.9,2.1-2.1s-1-2.1-2.1-2.1C40.9,10.3,40,11.2,40,12.4z M50.3,10.3c-1.1,0-2.1,1-2.1,2.1s1,2.1,2.1,2.1
					c1.2,0,2.1-1,2.1-2.1C52.4,11.2,51.4,10.2,50.3,10.3z"/>
			</g>
		</g>
		<path class="st3" d="M25.3,21.2c7.9,0,15.8,0,23.7,0c0.9,0,1.1,0.2,1.1,1.1c0,5.7,0,11.4,0,17.1c-5.4,0-10.9,0.1-16.3,0.1
			c-0.9,0-1.2-0.3-1.1-1.2c0-1.7-0.1-3.5,0-5.2c0.1-1.4-0.2-2.1-1.8-1.9c-1.3,0.1-2.6-0.1-3.9,0.1c-1.3,0.1-1.8-0.3-1.8-1.7
			C25.3,26.8,25.3,24,25.3,21.2z"/>
		<path d="M14.2,46.8c0-3.9,0.1-7.9,0.1-11.8c0-1.5,0.5-1.9,1.9-1.8c4.3,0.1,8.6,0.1,12.9,0c1.3,0,1.7,0.3,1.7,1.7c0,4,0.1,8,0.1,12
			C25.3,46.8,19.7,46.8,14.2,46.8z"/>
		<path class="st4" d="M10.8,25.3c3.9,0,7.8,0,11.6,0c1,0,1.4,0.3,1.4,1.4c0.1,3.8,0.2,3.8-3.7,3.8c-3.1,0-6.2,0-9.2,0
			C10.8,28.7,10.8,27,10.8,25.3z"/>
		<path class="st4" d="M33,46.8c0-1.5,0-2.9,0-4.4c0-0.4-0.1-1,0.5-1c1.5-0.1,3-0.1,4.6,0c0.6,0,0.5,0.6,0.5,1c0,1.5,0,2.9,0,4.4
			C36.7,46.8,34.9,46.8,33,46.8z"/>
	</g>
</g>
<g id="Layer_7" class="st0">
	<g class="st1">
		<path d="M60,33.9c0-0.3-0.1-0.6-0.3-0.8c-0.2-0.1-0.4-0.2-0.6-0.3c-0.2,0.1-0.4,0.1-0.7,0.1s-0.5,0-0.7,0c-0.1,0-0.2,0-0.4,0
			c-1.1-0.1-1.2-0.4-2-2c-1-1.8-1.1-3.1,0.7-4.4c0.9-0.7,0.8-1.6,0-2.4c-1-1-2.1-2-3.1-3c-1.4-1.4-2-1.3-3.3,0.2
			c-1,1.2-2,1.3-3.3,0.6c-0.4-0.2-0.8-0.5-1.2-0.6c-1.8-0.5-1.8-0.5-1.8-2.5c0-0.1,0-0.3,0-0.4c0-1.6-0.3-1.9-1.9-1.9
			c-1.6,0-3.1,0-4.7,0c-1.4,0-1.9,0.4-1.9,1.9c0,2.7,0.1,2-2.2,3.2c-2,1-3.3,0.8-4.7-0.9c-0.6-0.8-1.4-0.7-2.1,0
			c-1,0.9-1.9,1.8-2.9,2.7c-2.1,2-2.1,2.1,0.1,4c0.7,0.6,0.9,1.2,0.4,2c-0.4,0.7-0.7,1.4-0.9,2.1c-0.2,0.8-0.8,1.3-1.7,1.3
			c-0.6,0-1.2,0-1.8,0c-1.1,0-1.5,0.4-1.5,1.6c0,1.5,0,3,0,4.4c0,1.7,0.2,2,1.8,1.9c2.9,0,2.5,0.3,3.5,2.2c0.9,1.9,0.8,3-0.8,4.2
			c-0.9,0.7-0.8,1.4,0,2.2c1,1,2.1,1.9,3.1,3c1.2,1.2,2.2,1.5,3.4,0c0.9-1.2,1.9-1.3,3.2-0.6c0.4,0.2,0.7,0.5,1.1,0.6
			c1.6,0.4,2,1.4,1.9,3c-0.1,1.5,0.4,1.9,1.9,1.9c1.4,0,2.7,0,4.1,0c2.1,0,2.5-0.3,2.5-2.6c0-1,0.4-1.7,1.3-2.1
			c0.3-0.1,0.6-0.3,1-0.5c2.1-1,2.9-0.8,4.5,0.8c0.6,0.7,1.3,0.8,2,0.2c1.5-1.3,2.9-2.6,4.2-4c0.5-0.6,0.5-1.2-0.1-1.8
			c-0.4-0.4-0.9-0.8-1.4-1.2c-0.4-0.3-0.8-0.8-0.5-1.3c0.5-1,0.8-2,1.4-3c0.3-0.6,0.9-0.9,1.6-1c0.5,0,0.9,0,1.4,0
			c0.4,0,0.7,0,0.9,0 M41.5,45.5c-0.8,0.2-1.7,0.3-2.5,0.3c-2.3,0.1-4.4-0.8-6.2-2.3c-4.5-3.7-4.1-10.4,0.8-13.8
			c4.1-2.9,9.8-2,13,1.9C50.6,36.5,47.8,44,41.5,45.5z"/>
		<path d="M20.7,11.2c-2.3,0-5.1,1-7.6,3c-4.5,3.7-5,11.4-1.1,15.7c0.9,1,1.8,1.9,3,2.6c0.8,0.4,1.2,1.1,0.9,2.1
			c-0.2,0.7-0.2,1.5-0.3,2.3s-0.5,1.2-1.2,0.8c-1.3-0.7-2.3-0.4-3.3,0.7c-1.2,1.3-1.9,1.2-3.1,0c-1-1-2.1-2-3.1-3
			c-0.7-0.7-0.8-1.5,0-2.1c1.8-1.3,1.9-2.7,0.8-4.7c-1-1.8-0.8-1.9-2.9-2c-0.4,0-0.8,0-1.2,0c-0.7-0.1-1.2-0.5-1.2-1.2
			c0-1.8,0-3.6,0-5.5c0-0.7,0.5-1.1,1.2-1.2c0.8-0.1,1.7-0.2,2.5-0.2c0.5,0,0.8-0.1,1-0.6c0.3-1,0.8-2,1.3-2.9
			c0.3-0.6,0.2-1-0.3-1.4c-0.5-0.5-1-1-1.5-1.5c-0.6-0.5-0.6-1.2,0-1.8C6,9,7.3,7.7,8.7,6.5c0.5-0.5,1.1-0.4,1.6,0
			C10.6,6.7,11,7,11.2,7.3c0.9,1.2,2,1.4,3.3,0.6c0.6-0.4,1.4-0.6,2.1-0.8c0.7-0.2,0.9-0.6,0.9-1.3c0.1-3.3,0.1-3.3,3.2-3.3
			c1.2,0,2.5,0,3.7,0c0.9,0,1.4,0.5,1.3,1.4c-0.3,2.3,0.9,3.2,2.7,3.9c2,0.8,2.9,0.6,4.4-1c0.6-0.7,1.3-0.8,2-0.1
			c1.3,1.2,2.6,2.4,3.9,3.7c0.6,0.6,0.6,1.2,0,1.8c-0.4,0.4-0.9,0.9-1.3,1.3c-0.4,0.4-0.8,0.8-0.5,1.5c0.2,0.4-0.1,0.7-0.5,0.7
			c-1.3,0.3-2.5,0.6-3.8,0.8c-0.5,0.1-0.7-0.3-0.9-0.6C28.9,12.8,25.6,11.1,20.7,11.2z"/>
		<path class="st2" d="M40.2,32.9c0,2.7,0,2.7,2.6,2.7c0.4,0,0.8,0,1.3,0c1-0.1,1.2,0.3,1.2,1.3c0,0.9-0.2,1.4-1.2,1.3
			c-1-0.1-2,0-2.9,0c-0.7,0-1,0.2-1,1c0,1.2,0,2.4,0,3.5c0,0.7-0.2,1-0.9,1c-1.7,0-1.7,0.1-1.7-1.8c0-0.9,0-1.8,0-2.7
			c0-0.7-0.2-1-1-1c-1,0-2.1,0-3.1,0s-1-0.6-1-1.3s0-1.3,1-1.2s2,0,3,0c0.8,0,1.1-0.2,1.1-1.1c0-1.1,0-2.3,0-3.4
			c0-1.2,0.8-0.9,1.4-0.9c0.7,0,1.3,0,1.2,1C40.1,31.7,40.2,32.3,40.2,32.9z"/>
	</g>
</g>
<g id="Layer_8">
</g>
<g id="Layer_9">
</g>
<g>
	<g>
		<g>
			<path d="M45.5,2.2c-7.1,0-12.8,5.7-12.8,12.7H3.3L2,16.2v28l1.3,1.3h20.4V48c-4.4,0.6-7.7,4.4-7.7,8.9l1.3,1.3h15.3L34,57
				c0-4.5-3.2-8.3-7.7-8.9v-2.5h19.2l1.3-1.3V27.7c7.1-0.4,12.5-6.3,12.1-13.4C58.5,7.3,52.5,1.8,45.5,2.2L45.5,2.2z M31.3,55.7
				H18.8c0.7-3.4,4.1-5.7,7.5-5C28.8,51.2,30.8,53.2,31.3,55.7L31.3,55.7z M4.6,43V17.5H33c1.1,5.5,5.7,9.6,11.2,10.2V43H4.6L4.6,43
				z M45.8,25.7c-5.8,0-10.6-4.7-10.6-10.6c0-5.8,4.7-10.6,10.6-10.6s10.6,4.7,10.6,10.6C56.4,21,51.7,25.7,45.8,25.7L45.8,25.7z"/>
			<polygon points="8.4,21.2 11,21.2 11,23.8 8.4,23.8 8.4,21.2 			"/>
			<polygon points="13.5,21.2 16.1,21.2 16.1,23.8 13.5,23.8 13.5,21.2 			"/>
			<polygon points="18.6,21.2 21.2,21.2 21.2,23.8 18.6,23.8 18.6,21.2 			"/>
			<polygon class="st5" points="18.8,32.6 26.1,38.9 27.8,38.7 34.9,29.6 40.8,36.5 42.5,35 35.7,27.1 33.9,27.1 26.7,36.4 
				19.6,30.4 18.3,30.3 7,37.1 8.1,39 18.8,32.6 18.8,32.6 			"/>
		</g>
	</g>
	<polygon class="st5" points="47.4,10.9 45.4,8.2 45.1,8.1 42.6,7.6 42.3,8.2 44.6,11.2 43.1,12.4 40.8,9.4 40.1,9.6 39.9,12.1 
		40,12.3 42,15 42.3,15.1 44.8,15.1 50,22.1 50.6,22.1 52,21 52.1,20.5 46.9,13.6 47.5,11.2 47.4,10.9 47.4,10.9 	"/>
</g>
</svg>
